<svg width="342" height="145" viewBox="0 0 342 145" fill="none" xmlns="http://www.w3.org/2000/svg">
<path d="M11.0115 72.3635H12.6848V81.5126C12.6848 82.4572 12.4621 83.3006 12.0168 84.0428C11.576 84.7805 10.953 85.363 10.1479 85.7903C9.3427 86.2131 8.3981 86.4245 7.31405 86.4245C6.23001 86.4245 5.28541 86.2131 4.48025 85.7903C3.67509 85.363 3.04985 84.7805 2.60454 84.0428C2.16372 83.3006 1.94332 82.4572 1.94332 81.5126V72.3635H3.61661V81.3777C3.61661 82.0524 3.76505 82.6529 4.06192 83.1792C4.3588 83.7009 4.78162 84.1125 5.33039 84.4139C5.88366 84.7108 6.54488 84.8592 7.31405 84.8592C8.08323 84.8592 8.74445 84.7108 9.29772 84.4139C9.85099 84.1125 10.2738 83.7009 10.5662 83.1792C10.8631 82.6529 11.0115 82.0524 11.0115 81.3777V72.3635ZM17.4027 79.9473V86.1816H15.8104V75.818H17.3488V77.4373H17.4837C17.7266 76.911 18.0955 76.4882 18.5902 76.1689C19.085 75.845 19.7238 75.6831 20.5064 75.6831C21.2081 75.6831 21.8221 75.827 22.3484 76.1149C22.8747 76.3983 23.284 76.8301 23.5764 77.4103C23.8688 77.9861 24.015 78.7148 24.015 79.5964V86.1816H22.4226V79.7044C22.4226 78.8902 22.2112 78.256 21.7884 77.8017C21.3656 77.3429 20.7853 77.1135 20.0476 77.1135C19.5393 77.1135 19.085 77.2237 18.6847 77.4441C18.2889 77.6645 17.9763 77.9861 17.7468 78.4089C17.5174 78.8317 17.4027 79.3445 17.4027 79.9473ZM28.517 72.3635V86.1816H26.9247V72.3635H28.517ZM31.4335 86.1816V75.818H33.0258V86.1816H31.4335ZM32.2431 74.0907C31.9328 74.0907 31.6651 73.985 31.4402 73.7736C31.2198 73.5622 31.1096 73.3081 31.1096 73.0112C31.1096 72.7143 31.2198 72.4602 31.4402 72.2488C31.6651 72.0373 31.9328 71.9316 32.2431 71.9316C32.5535 71.9316 32.8189 72.0373 33.0393 72.2488C33.2642 72.4602 33.3766 72.7143 33.3766 73.0112C33.3766 73.3081 33.2642 73.5622 33.0393 73.7736C32.8189 73.985 32.5535 74.0907 32.2431 74.0907ZM37.4266 82.4032L37.3996 80.4331H37.7235L42.2576 75.818H44.2278L39.3968 80.7029H39.2619L37.4266 82.4032ZM35.9422 86.1816V72.3635H37.5346V86.1816H35.9422ZM42.5275 86.1816L38.4792 81.0538L39.6127 79.9473L44.5516 86.1816H42.5275ZM50.1956 86.3975C49.197 86.3975 48.3357 86.1771 47.6115 85.7363C46.8918 85.291 46.3362 84.6703 45.9449 83.8741C45.5581 83.0734 45.3647 82.1423 45.3647 81.0808C45.3647 80.0192 45.5581 79.0836 45.9449 78.274C46.3362 77.4598 46.8805 76.8256 47.5777 76.3713C48.2794 75.9125 49.0981 75.6831 50.0337 75.6831C50.5735 75.6831 51.1065 75.773 51.6328 75.9529C52.159 76.1329 52.6381 76.4252 53.0699 76.8301C53.5017 77.2304 53.8458 77.7612 54.1022 78.4224C54.3586 79.0836 54.4868 79.8978 54.4868 80.8649V81.5396H46.4982V80.1632H52.8675C52.8675 79.5784 52.7505 79.0566 52.5166 78.5978C52.2872 78.139 51.9589 77.7769 51.5316 77.5115C51.1087 77.2462 50.6094 77.1135 50.0337 77.1135C49.3995 77.1135 48.8507 77.2709 48.3874 77.5858C47.9286 77.8961 47.5755 78.301 47.3281 78.8002C47.0807 79.2995 46.957 79.8348 46.957 80.4061V81.3237C46.957 82.1064 47.0919 82.7698 47.3618 83.3141C47.6362 83.8539 48.0163 84.2654 48.5021 84.5488C48.9879 84.8277 49.5524 84.9672 50.1956 84.9672C50.6139 84.9672 50.9918 84.9087 51.3291 84.7917C51.671 84.6703 51.9656 84.4904 52.213 84.252C52.4604 84.0091 52.6516 83.7077 52.7865 83.3478L54.3249 83.7797C54.163 84.3014 53.8908 84.7602 53.5085 85.1561C53.1261 85.5474 52.6538 85.8533 52.0916 86.0737C51.5293 86.2896 50.8973 86.3975 50.1956 86.3975ZM66.463 86.3975C65.5274 86.3975 64.7065 86.1749 64.0003 85.7296C63.2986 85.2843 62.7498 84.6613 62.354 83.8606C61.9627 83.06 61.767 82.1243 61.767 81.0538C61.767 79.9743 61.9627 79.0319 62.354 78.2267C62.7498 77.4216 63.2986 76.7963 64.0003 76.351C64.7065 75.9057 65.5274 75.6831 66.463 75.6831C67.3986 75.6831 68.2173 75.9057 68.919 76.351C69.6252 76.7963 70.174 77.4216 70.5653 78.2267C70.9611 79.0319 71.159 79.9743 71.159 81.0538C71.159 82.1243 70.9611 83.06 70.5653 83.8606C70.174 84.6613 69.6252 85.2843 68.919 85.7296C68.2173 86.1749 67.3986 86.3975 66.463 86.3975ZM66.463 84.9672C67.1737 84.9672 67.7585 84.785 68.2173 84.4206C68.6761 84.0563 69.0157 83.5772 69.2361 82.9835C69.4565 82.3897 69.5667 81.7465 69.5667 81.0538C69.5667 80.3611 69.4565 79.7156 69.2361 79.1174C69.0157 78.5191 68.6761 78.0356 68.2173 77.6667C67.7585 77.2979 67.1737 77.1135 66.463 77.1135C65.7523 77.1135 65.1676 77.2979 64.7088 77.6667C64.25 78.0356 63.9103 78.5191 63.6899 79.1174C63.4695 79.7156 63.3593 80.3611 63.3593 81.0538C63.3593 81.7465 63.4695 82.3897 63.6899 82.9835C63.9103 83.5772 64.25 84.0563 64.7088 84.4206C65.1676 84.785 65.7523 84.9672 66.463 84.9672ZM78.0968 75.818V77.1674H72.7261V75.818H78.0968ZM74.2914 73.335H75.8837V83.2129C75.8837 83.6627 75.949 84.0001 76.0794 84.225C76.2144 84.4454 76.3853 84.5938 76.5922 84.6703C76.8036 84.7422 77.0263 84.7782 77.2602 84.7782C77.4356 84.7782 77.5795 84.7692 77.692 84.7512C77.8044 84.7288 77.8944 84.7108 77.9619 84.6973L78.2857 86.1277C78.1778 86.1681 78.0271 86.2086 77.8337 86.2491C77.6403 86.2941 77.3951 86.3166 77.0982 86.3166C76.6484 86.3166 76.2076 86.2199 75.7758 86.0265C75.3485 85.833 74.9931 85.5384 74.7097 85.1426C74.4309 84.7467 74.2914 84.2475 74.2914 83.6447V73.335ZM82.307 79.9473V86.1816H80.7147V72.3635H82.307V77.4373H82.442C82.6849 76.902 83.0492 76.477 83.535 76.1621C84.0253 75.8427 84.6775 75.6831 85.4917 75.6831C86.1979 75.6831 86.8164 75.8248 87.3472 76.1081C87.8779 76.387 88.2895 76.8166 88.5819 77.3968C88.8788 77.9726 89.0272 78.7058 89.0272 79.5964V86.1816H87.4349V79.7044C87.4349 78.8812 87.2212 78.2447 86.7939 77.7949C86.3711 77.3406 85.7841 77.1135 85.0329 77.1135C84.5111 77.1135 84.0433 77.2237 83.6295 77.4441C83.2202 77.6645 82.8963 77.9861 82.6579 78.4089C82.424 78.8317 82.307 79.3445 82.307 79.9473ZM96.2855 86.3975C95.2869 86.3975 94.4255 86.1771 93.7013 85.7363C92.9816 85.291 92.4261 84.6703 92.0348 83.8741C91.6479 83.0734 91.4545 82.1423 91.4545 81.0808C91.4545 80.0192 91.6479 79.0836 92.0348 78.274C92.4261 77.4598 92.9704 76.8256 93.6676 76.3713C94.3693 75.9125 95.1879 75.6831 96.1235 75.6831C96.6633 75.6831 97.1963 75.773 97.7226 75.9529C98.2489 76.1329 98.7279 76.4252 99.1598 76.8301C99.5916 77.2304 99.9357 77.7612 100.192 78.4224C100.448 79.0836 100.577 79.8978 100.577 80.8649V81.5396H92.588V80.1632H98.9573C98.9573 79.5784 98.8404 79.0566 98.6065 78.5978C98.3771 78.139 98.0487 77.7769 97.6214 77.5115C97.1986 77.2462 96.6993 77.1135 96.1235 77.1135C95.4893 77.1135 94.9405 77.2709 94.4772 77.5858C94.0184 77.8961 93.6653 78.301 93.4179 78.8002C93.1705 79.2995 93.0468 79.8348 93.0468 80.4061V81.3237C93.0468 82.1064 93.1818 82.7698 93.4517 83.3141C93.726 83.8539 94.1061 84.2654 94.5919 84.5488C95.0777 84.8277 95.6422 84.9672 96.2855 84.9672C96.7038 84.9672 97.0816 84.9087 97.419 84.7917C97.7608 84.6703 98.0555 84.4904 98.3029 84.252C98.5503 84.0091 98.7414 83.7077 98.8764 83.3478L100.415 83.7797C100.253 84.3014 99.9807 84.7602 99.5983 85.1561C99.216 85.5474 98.7437 85.8533 98.1814 86.0737C97.6192 86.2896 96.9872 86.3975 96.2855 86.3975ZM102.999 86.1816V75.818H104.537V77.3833H104.645C104.834 76.8706 105.176 76.4545 105.671 76.1351C106.166 75.8158 106.723 75.6561 107.344 75.6561C107.461 75.6561 107.607 75.6583 107.783 75.6628C107.958 75.6673 108.091 75.6741 108.181 75.6831V77.3024C108.127 77.2889 108.003 77.2686 107.81 77.2417C107.621 77.2102 107.421 77.1944 107.209 77.1944C106.705 77.1944 106.256 77.3001 105.86 77.5115C105.468 77.7185 105.158 78.0063 104.929 78.3752C104.704 78.7395 104.591 79.1556 104.591 79.6234V86.1816H102.999ZM122.753 78.139L121.322 78.5439C121.233 78.3055 121.1 78.0738 120.924 77.8489C120.753 77.6195 120.52 77.4306 120.223 77.2821C119.926 77.1337 119.546 77.0595 119.082 77.0595C118.448 77.0595 117.92 77.2057 117.497 77.498C117.079 77.7859 116.869 78.1525 116.869 78.5978C116.869 78.9937 117.013 79.3063 117.301 79.5357C117.589 79.7651 118.039 79.9563 118.651 80.1092L120.189 80.487C121.116 80.7119 121.806 81.056 122.26 81.5194C122.715 81.9782 122.942 82.5697 122.942 83.2939C122.942 83.8876 122.771 84.4184 122.429 84.8862C122.092 85.354 121.619 85.7228 121.012 85.9927C120.405 86.2626 119.699 86.3975 118.894 86.3975C117.836 86.3975 116.962 86.1681 116.269 85.7093C115.576 85.2505 115.138 84.5803 114.953 83.6987L116.465 83.3208C116.608 83.8786 116.881 84.2969 117.281 84.5758C117.686 84.8547 118.214 84.9941 118.867 84.9941C119.609 84.9941 120.198 84.8367 120.634 84.5218C121.075 84.2025 121.295 83.8201 121.295 83.3748C121.295 83.015 121.17 82.7136 120.918 82.4707C120.666 82.2233 120.279 82.0389 119.757 81.9174L118.03 81.5126C117.081 81.2877 116.384 80.9391 115.938 80.4668C115.497 79.99 115.277 79.394 115.277 78.6788C115.277 78.094 115.441 77.5768 115.77 77.127C116.102 76.6771 116.554 76.324 117.126 76.0676C117.702 75.8113 118.354 75.6831 119.082 75.6831C120.108 75.6831 120.913 75.908 121.498 76.3578C122.087 76.8076 122.505 77.4013 122.753 78.139ZM129.846 75.818V77.1674H124.475V75.818H129.846ZM126.04 73.335H127.633V83.2129C127.633 83.6627 127.698 84.0001 127.828 84.225C127.963 84.4454 128.134 84.5938 128.341 84.6703C128.553 84.7422 128.775 84.7782 129.009 84.7782C129.185 84.7782 129.329 84.7692 129.441 84.7512C129.553 84.7288 129.643 84.7108 129.711 84.6973L130.035 86.1277C129.927 86.1681 129.776 86.2086 129.583 86.2491C129.389 86.2941 129.144 86.3166 128.847 86.3166C128.397 86.3166 127.957 86.2199 127.525 86.0265C127.097 85.833 126.742 85.5384 126.459 85.1426C126.18 84.7467 126.04 84.2475 126.04 83.6447V73.335ZM132.241 86.1816V75.818H133.779V77.3833H133.887C134.076 76.8706 134.418 76.4545 134.913 76.1351C135.408 75.8158 135.966 75.6561 136.586 75.6561C136.703 75.6561 136.849 75.6583 137.025 75.6628C137.2 75.6673 137.333 75.6741 137.423 75.6831V77.3024C137.369 77.2889 137.245 77.2686 137.052 77.2417C136.863 77.2102 136.663 77.1944 136.451 77.1944C135.948 77.1944 135.498 77.3001 135.102 77.5115C134.711 77.7185 134.4 78.0063 134.171 78.3752C133.946 78.7395 133.833 79.1556 133.833 79.6234V86.1816H132.241ZM143.34 86.3975C142.342 86.3975 141.48 86.1771 140.756 85.7363C140.036 85.291 139.481 84.6703 139.089 83.8741C138.703 83.0734 138.509 82.1423 138.509 81.0808C138.509 80.0192 138.703 79.0836 139.089 78.274C139.481 77.4598 140.025 76.8256 140.722 76.3713C141.424 75.9125 142.243 75.6831 143.178 75.6831C143.718 75.6831 144.251 75.773 144.777 75.9529C145.304 76.1329 145.783 76.4252 146.214 76.8301C146.646 77.2304 146.99 77.7612 147.247 78.4224C147.503 79.0836 147.631 79.8978 147.631 80.8649V81.5396H139.643V80.1632H146.012C146.012 79.5784 145.895 79.0566 145.661 78.5978C145.432 78.139 145.103 77.7769 144.676 77.5115C144.253 77.2462 143.754 77.1135 143.178 77.1135C142.544 77.1135 141.995 77.2709 141.532 77.5858C141.073 77.8961 140.72 78.301 140.473 78.8002C140.225 79.2995 140.102 79.8348 140.102 80.4061V81.3237C140.102 82.1064 140.236 82.7698 140.506 83.3141C140.781 83.8539 141.161 84.2654 141.647 84.5488C142.132 84.8277 142.697 84.9672 143.34 84.9672C143.758 84.9672 144.136 84.9087 144.474 84.7917C144.816 84.6703 145.11 84.4904 145.358 84.252C145.605 84.0091 145.796 83.7077 145.931 83.3478L147.469 83.7797C147.307 84.3014 147.035 84.7602 146.653 85.1561C146.271 85.5474 145.798 85.8533 145.236 86.0737C144.674 86.2896 144.042 86.3975 143.34 86.3975ZM153.103 86.4245C152.447 86.4245 151.851 86.3008 151.315 86.0534C150.78 85.8016 150.355 85.4395 150.04 84.9672C149.725 84.4904 149.568 83.9146 149.568 83.2399C149.568 82.6461 149.685 82.1648 149.919 81.796C150.153 81.4226 150.465 81.1303 150.856 80.9189C151.248 80.7074 151.68 80.55 152.152 80.4466C152.629 80.3386 153.108 80.2531 153.589 80.1902C154.219 80.1092 154.729 80.0485 155.121 80.008C155.517 79.963 155.804 79.8888 155.984 79.7853C156.169 79.6819 156.261 79.502 156.261 79.2456V79.1916C156.261 78.5259 156.079 78.0086 155.714 77.6397C155.355 77.2709 154.808 77.0865 154.075 77.0865C153.315 77.0865 152.719 77.2529 152.287 77.5858C151.855 77.9186 151.551 78.274 151.376 78.6518L149.865 78.112C150.135 77.4823 150.494 76.992 150.944 76.6412C151.399 76.2858 151.893 76.0384 152.429 75.899C152.968 75.755 153.499 75.6831 154.021 75.6831C154.354 75.6831 154.736 75.7235 155.168 75.8045C155.604 75.881 156.025 76.0407 156.43 76.2836C156.839 76.5265 157.179 76.8931 157.448 77.3833C157.718 77.8736 157.853 78.5304 157.853 79.3535V86.1816H156.261V84.7782H156.18C156.072 85.0031 155.892 85.2438 155.64 85.5002C155.388 85.7566 155.053 85.9747 154.635 86.1547C154.217 86.3346 153.706 86.4245 153.103 86.4245ZM153.346 84.9941C153.976 84.9941 154.507 84.8704 154.939 84.623C155.375 84.3757 155.703 84.0563 155.924 83.665C156.149 83.2736 156.261 82.862 156.261 82.4302V80.9728C156.193 81.0538 156.045 81.128 155.816 81.1955C155.591 81.2585 155.33 81.3147 155.033 81.3642C154.741 81.4091 154.455 81.4496 154.176 81.4856C153.902 81.5171 153.679 81.5441 153.508 81.5666C153.094 81.6206 152.707 81.7083 152.348 81.8297C151.992 81.9467 151.704 82.1243 151.484 82.3627C151.268 82.5966 151.16 82.916 151.16 83.3208C151.16 83.8741 151.365 84.2924 151.774 84.5758C152.188 84.8547 152.712 84.9941 153.346 84.9941ZM160.76 86.1816V75.818H162.298V77.4373H162.433C162.649 76.8841 162.997 76.4545 163.479 76.1486C163.96 75.8382 164.538 75.6831 165.213 75.6831C165.896 75.6831 166.465 75.8382 166.92 76.1486C167.379 76.4545 167.736 76.8841 167.993 77.4373H168.101C168.366 76.902 168.764 76.477 169.295 76.1621C169.826 75.8427 170.462 75.6831 171.204 75.6831C172.131 75.6831 172.889 75.9732 173.478 76.5534C174.067 77.1292 174.362 78.0266 174.362 79.2456V86.1816H172.77V79.2456C172.77 78.4809 172.56 77.9344 172.142 77.606C171.724 77.2776 171.231 77.1135 170.664 77.1135C169.936 77.1135 169.371 77.3339 168.971 77.7747C168.571 78.211 168.37 78.7643 168.37 79.4345V86.1816H166.751V79.0836C166.751 78.4944 166.56 78.0198 166.178 77.66C165.795 77.2956 165.303 77.1135 164.7 77.1135C164.286 77.1135 163.899 77.2237 163.539 77.4441C163.184 77.6645 162.896 77.9703 162.676 78.3617C162.46 78.7485 162.352 79.1961 162.352 79.7044V86.1816H160.76ZM177.273 86.1816V75.818H178.866V86.1816H177.273ZM178.083 74.0907C177.773 74.0907 177.505 73.985 177.28 73.7736C177.06 73.5622 176.949 73.3081 176.949 73.0112C176.949 72.7143 177.06 72.4602 177.28 72.2488C177.505 72.0373 177.773 71.9316 178.083 71.9316C178.393 71.9316 178.659 72.0373 178.879 72.2488C179.104 72.4602 179.216 72.7143 179.216 73.0112C179.216 73.3081 179.104 73.5622 178.879 73.7736C178.659 73.985 178.393 74.0907 178.083 74.0907ZM183.374 79.9473V86.1816H181.782V75.818H183.32V77.4373H183.455C183.698 76.911 184.067 76.4882 184.562 76.1689C185.057 75.845 185.695 75.6831 186.478 75.6831C187.18 75.6831 187.794 75.827 188.32 76.1149C188.846 76.3983 189.256 76.8301 189.548 77.4103C189.84 77.9861 189.987 78.7148 189.987 79.5964V86.1816H188.394V79.7044C188.394 78.8902 188.183 78.256 187.76 77.8017C187.337 77.3429 186.757 77.1135 186.019 77.1135C185.511 77.1135 185.057 77.2237 184.656 77.4441C184.261 77.6645 183.948 77.9861 183.719 78.4089C183.489 78.8317 183.374 79.3445 183.374 79.9473ZM197.08 90.2839C196.31 90.2839 195.649 90.185 195.096 89.987C194.543 89.7936 194.082 89.5372 193.713 89.2179C193.348 88.903 193.058 88.5656 192.842 88.2058L194.111 87.3152C194.255 87.5041 194.437 87.72 194.657 87.9629C194.878 88.2103 195.179 88.4239 195.561 88.6039C195.948 88.7883 196.454 88.8805 197.08 88.8805C197.916 88.8805 198.607 88.6781 199.151 88.2733C199.695 87.8684 199.967 87.2342 199.967 86.3706V84.2654H199.832C199.715 84.4544 199.549 84.6883 199.333 84.9672C199.122 85.2415 198.816 85.4867 198.416 85.7026C198.02 85.914 197.484 86.0197 196.81 86.0197C195.973 86.0197 195.222 85.8218 194.556 85.426C193.895 85.0301 193.371 84.4544 192.984 83.6987C192.602 82.943 192.411 82.0254 192.411 80.9458C192.411 79.8843 192.597 78.9599 192.971 78.1728C193.344 77.3811 193.863 76.7694 194.529 76.3375C195.195 75.9012 195.964 75.6831 196.837 75.6831C197.511 75.6831 198.047 75.7955 198.443 76.0204C198.843 76.2408 199.149 76.4927 199.36 76.7761C199.576 77.055 199.742 77.2844 199.859 77.4643H200.021V75.818H201.56V86.4785C201.56 87.3691 201.357 88.0933 200.952 88.6511C200.552 89.2134 200.012 89.6249 199.333 89.8858C198.658 90.1512 197.907 90.2839 197.08 90.2839ZM197.026 84.5893C197.664 84.5893 198.204 84.4431 198.645 84.1507C199.086 83.8584 199.421 83.4378 199.65 82.889C199.88 82.3403 199.994 81.6835 199.994 80.9189C199.994 80.1722 199.882 79.5132 199.657 78.9419C199.432 78.3707 199.099 77.9231 198.658 77.5993C198.218 77.2754 197.673 77.1135 197.026 77.1135C196.351 77.1135 195.789 77.2844 195.339 77.6262C194.894 77.9681 194.558 78.4269 194.333 79.0027C194.113 79.5784 194.003 80.2172 194.003 80.9189C194.003 81.6386 194.115 82.275 194.34 82.8283C194.57 83.3771 194.907 83.8089 195.352 84.1238C195.802 84.4341 196.36 84.5893 197.026 84.5893ZM209.818 90.068V75.818H211.357V77.4643H211.545C211.662 77.2844 211.824 77.055 212.031 76.7761C212.243 76.4927 212.544 76.2408 212.935 76.0204C213.331 75.7955 213.867 75.6831 214.541 75.6831C215.414 75.6831 216.183 75.9012 216.849 76.3375C217.514 76.7739 218.034 77.3923 218.407 78.193C218.781 78.9937 218.967 79.9383 218.967 81.0268C218.967 82.1243 218.781 83.0757 218.407 83.8809C218.034 84.6815 217.517 85.3023 216.856 85.7431C216.194 86.1794 215.432 86.3975 214.568 86.3975C213.903 86.3975 213.369 86.2873 212.969 86.0669C212.569 85.842 212.261 85.5879 212.045 85.3045C211.829 85.0166 211.662 84.7782 211.545 84.5893H211.411V90.068H209.818ZM211.384 80.9998C211.384 81.7825 211.498 82.473 211.728 83.0712C211.957 83.665 212.292 84.1305 212.733 84.4679C213.174 84.8007 213.714 84.9672 214.352 84.9672C215.018 84.9672 215.574 84.7917 216.019 84.4409C216.469 84.0855 216.806 83.6087 217.031 83.0105C217.26 82.4077 217.375 81.7375 217.375 80.9998C217.375 80.2711 217.263 79.6144 217.038 79.0297C216.817 78.4404 216.482 77.9748 216.032 77.633C215.587 77.2866 215.027 77.1135 214.352 77.1135C213.705 77.1135 213.16 77.2776 212.72 77.606C212.279 77.9299 211.946 78.3842 211.721 78.9689C211.496 79.5492 211.384 80.2261 211.384 80.9998ZM222.989 72.3635V86.1816H221.396V72.3635H222.989ZM228.955 86.4245C228.298 86.4245 227.702 86.3008 227.167 86.0534C226.632 85.8016 226.207 85.4395 225.892 84.9672C225.577 84.4904 225.419 83.9146 225.419 83.2399C225.419 82.6461 225.536 82.1648 225.77 81.796C226.004 81.4226 226.317 81.1303 226.708 80.9189C227.099 80.7074 227.531 80.55 228.004 80.4466C228.48 80.3386 228.959 80.2531 229.441 80.1902C230.07 80.1092 230.581 80.0485 230.972 80.008C231.368 79.963 231.656 79.8888 231.836 79.7853C232.02 79.6819 232.113 79.502 232.113 79.2456V79.1916C232.113 78.5259 231.93 78.0086 231.566 77.6397C231.206 77.2709 230.66 77.0865 229.926 77.0865C229.166 77.0865 228.57 77.2529 228.138 77.5858C227.707 77.9186 227.403 78.274 227.228 78.6518L225.716 78.112C225.986 77.4823 226.346 76.992 226.796 76.6412C227.25 76.2858 227.745 76.0384 228.28 75.899C228.82 75.755 229.351 75.6831 229.872 75.6831C230.205 75.6831 230.588 75.7235 231.019 75.8045C231.456 75.881 231.876 76.0407 232.281 76.2836C232.691 76.5265 233.03 76.8931 233.3 77.3833C233.57 77.8736 233.705 78.5304 233.705 79.3535V86.1816H232.113V84.7782H232.032C231.924 85.0031 231.744 85.2438 231.492 85.5002C231.24 85.7566 230.905 85.9747 230.486 86.1547C230.068 86.3346 229.558 86.4245 228.955 86.4245ZM229.198 84.9941C229.827 84.9941 230.358 84.8704 230.79 84.623C231.226 84.3757 231.555 84.0563 231.775 83.665C232 83.2736 232.113 82.862 232.113 82.4302V80.9728C232.045 81.0538 231.897 81.128 231.667 81.1955C231.442 81.2585 231.181 81.3147 230.885 81.3642C230.592 81.4091 230.307 81.4496 230.028 81.4856C229.753 81.5171 229.531 81.5441 229.36 81.5666C228.946 81.6206 228.559 81.7083 228.199 81.8297C227.844 81.9467 227.556 82.1243 227.336 82.3627C227.12 82.5966 227.012 82.916 227.012 83.3208C227.012 83.8741 227.216 84.2924 227.626 84.5758C228.039 84.8547 228.564 84.9941 229.198 84.9941ZM241.118 75.818V77.1674H235.748V75.818H241.118ZM237.313 73.335H238.905V83.2129C238.905 83.6627 238.97 84.0001 239.101 84.225C239.236 84.4454 239.407 84.5938 239.614 84.6703C239.825 84.7422 240.048 84.7782 240.282 84.7782C240.457 84.7782 240.601 84.7692 240.713 84.7512C240.826 84.7288 240.916 84.7108 240.983 84.6973L241.307 86.1277C241.199 86.1681 241.049 86.2086 240.855 86.2491C240.662 86.2941 240.417 86.3166 240.12 86.3166C239.67 86.3166 239.229 86.2199 238.797 86.0265C238.37 85.833 238.015 85.5384 237.731 85.1426C237.452 84.7467 237.313 84.2475 237.313 83.6447V73.335ZM248.129 75.818V77.1674H242.542V75.818H248.129ZM244.215 86.1816V74.3876C244.215 73.7939 244.355 73.2991 244.634 72.9032C244.912 72.5074 245.275 72.2105 245.72 72.0126C246.165 71.8147 246.635 71.7157 247.13 71.7157C247.521 71.7157 247.841 71.7472 248.088 71.8102C248.336 71.8732 248.52 71.9316 248.641 71.9856L248.183 73.362C248.102 73.335 247.989 73.3013 247.845 73.2608C247.706 73.2203 247.521 73.2001 247.292 73.2001C246.766 73.2001 246.386 73.3328 246.152 73.5982C245.922 73.8636 245.808 74.2527 245.808 74.7654V86.1816H244.215ZM254.144 86.3975C253.208 86.3975 252.387 86.1749 251.681 85.7296C250.979 85.2843 250.431 84.6613 250.035 83.8606C249.643 83.06 249.448 82.1243 249.448 81.0538C249.448 79.9743 249.643 79.0319 250.035 78.2267C250.431 77.4216 250.979 76.7963 251.681 76.351C252.387 75.9057 253.208 75.6831 254.144 75.6831C255.079 75.6831 255.898 75.9057 256.6 76.351C257.306 76.7963 257.855 77.4216 258.246 78.2267C258.642 79.0319 258.84 79.9743 258.84 81.0538C258.84 82.1243 258.642 83.06 258.246 83.8606C257.855 84.6613 257.306 85.2843 256.6 85.7296C255.898 86.1749 255.079 86.3975 254.144 86.3975ZM254.144 84.9672C254.854 84.9672 255.439 84.785 255.898 84.4206C256.357 84.0563 256.696 83.5772 256.917 82.9835C257.137 82.3897 257.247 81.7465 257.247 81.0538C257.247 80.3611 257.137 79.7156 256.917 79.1174C256.696 78.5191 256.357 78.0356 255.898 77.6667C255.439 77.2979 254.854 77.1135 254.144 77.1135C253.433 77.1135 252.848 77.2979 252.389 77.6667C251.931 78.0356 251.591 78.5191 251.371 79.1174C251.15 79.7156 251.04 80.3611 251.04 81.0538C251.04 81.7465 251.15 82.3897 251.371 82.9835C251.591 83.5772 251.931 84.0563 252.389 84.4206C252.848 84.785 253.433 84.9672 254.144 84.9672ZM261.27 86.1816V75.818H262.809V77.3833H262.917C263.106 76.8706 263.447 76.4545 263.942 76.1351C264.437 75.8158 264.995 75.6561 265.616 75.6561C265.732 75.6561 265.879 75.6583 266.054 75.6628C266.23 75.6673 266.362 75.6741 266.452 75.6831V77.3024C266.398 77.2889 266.275 77.2686 266.081 77.2417C265.892 77.2102 265.692 77.1944 265.481 77.1944C264.977 77.1944 264.527 77.3001 264.131 77.5115C263.74 77.7185 263.429 78.0063 263.2 78.3752C262.975 78.7395 262.863 79.1556 262.863 79.6234V86.1816H261.27ZM268.34 86.1816V75.818H269.878V77.4373H270.013C270.229 76.8841 270.578 76.4545 271.059 76.1486C271.54 75.8382 272.118 75.6831 272.793 75.6831C273.477 75.6831 274.046 75.8382 274.5 76.1486C274.959 76.4545 275.316 76.8841 275.573 77.4373H275.681C275.946 76.902 276.344 76.477 276.875 76.1621C277.406 75.8427 278.042 75.6831 278.784 75.6831C279.711 75.6831 280.469 75.9732 281.058 76.5534C281.647 77.1292 281.942 78.0266 281.942 79.2456V86.1816H280.35V79.2456C280.35 78.4809 280.14 77.9344 279.722 77.606C279.304 77.2776 278.811 77.1135 278.245 77.1135C277.516 77.1135 276.951 77.3339 276.551 77.7747C276.151 78.211 275.951 78.7643 275.951 79.4345V86.1816H274.331V79.0836C274.331 78.4944 274.14 78.0198 273.758 77.66C273.375 77.2956 272.883 77.1135 272.28 77.1135C271.866 77.1135 271.479 77.2237 271.12 77.4441C270.764 77.6645 270.476 77.9703 270.256 78.3617C270.04 78.7485 269.932 79.1961 269.932 79.7044V86.1816H268.34ZM292.194 78.139L290.764 78.5439C290.674 78.3055 290.541 78.0738 290.366 77.8489C290.195 77.6195 289.961 77.4306 289.664 77.2821C289.367 77.1337 288.987 77.0595 288.524 77.0595C287.89 77.0595 287.361 77.2057 286.938 77.498C286.52 77.7859 286.311 78.1525 286.311 78.5978C286.311 78.9937 286.455 79.3063 286.743 79.5357C287.03 79.7651 287.48 79.9563 288.092 80.1092L289.63 80.487C290.557 80.7119 291.247 81.056 291.702 81.5194C292.156 81.9782 292.383 82.5697 292.383 83.2939C292.383 83.8876 292.212 84.4184 291.87 84.8862C291.533 85.354 291.061 85.7228 290.454 85.9927C289.846 86.2626 289.14 86.3975 288.335 86.3975C287.278 86.3975 286.403 86.1681 285.71 85.7093C285.018 85.2505 284.579 84.5803 284.395 83.6987L285.906 83.3208C286.05 83.8786 286.322 84.2969 286.722 84.5758C287.127 84.8547 287.656 84.9941 288.308 84.9941C289.05 84.9941 289.639 84.8367 290.076 84.5218C290.516 84.2025 290.737 83.8201 290.737 83.3748C290.737 83.015 290.611 82.7136 290.359 82.4707C290.107 82.2233 289.72 82.0389 289.199 81.9174L287.471 81.5126C286.522 81.2877 285.825 80.9391 285.38 80.4668C284.939 79.99 284.718 79.394 284.718 78.6788C284.718 78.094 284.883 77.5768 285.211 77.127C285.544 76.6771 285.996 76.324 286.567 76.0676C287.143 75.8113 287.795 75.6831 288.524 75.6831C289.549 75.6831 290.355 75.908 290.939 76.3578C291.529 76.8076 291.947 77.4013 292.194 78.139ZM297.155 84.2924L297.047 85.0211C296.971 85.5339 296.854 86.0827 296.696 86.6674C296.543 87.2522 296.384 87.8032 296.217 88.3205C296.051 88.8378 295.914 89.2493 295.806 89.5552H294.591C294.65 89.2673 294.726 88.8873 294.821 88.415C294.915 87.9426 295.01 87.4141 295.104 86.8294C295.203 86.2491 295.284 85.6554 295.347 85.0481L295.428 84.2924H297.155ZM307.797 86.1816L304.639 75.818H306.313L308.553 83.7527H308.661L310.874 75.818H312.574L314.76 83.7257H314.868L317.108 75.818H318.781L315.624 86.1816H314.058L311.791 78.22H311.629L309.362 86.1816H307.797ZM324.879 86.3975C323.881 86.3975 323.019 86.1771 322.295 85.7363C321.575 85.291 321.02 84.6703 320.629 83.8741C320.242 83.0734 320.048 82.1423 320.048 81.0808C320.048 80.0192 320.242 79.0836 320.629 78.274C321.02 77.4598 321.564 76.8256 322.261 76.3713C322.963 75.9125 323.782 75.6831 324.717 75.6831C325.257 75.6831 325.79 75.773 326.316 75.9529C326.843 76.1329 327.322 76.4252 327.754 76.8301C328.185 77.2304 328.529 77.7612 328.786 78.4224C329.042 79.0836 329.17 79.8978 329.17 80.8649V81.5396H321.182V80.1632H327.551C327.551 79.5784 327.434 79.0566 327.2 78.5978C326.971 78.139 326.642 77.7769 326.215 77.5115C325.792 77.2462 325.293 77.1135 324.717 77.1135C324.083 77.1135 323.534 77.2709 323.071 77.5858C322.612 77.8961 322.259 78.301 322.012 78.8002C321.764 79.2995 321.641 79.8348 321.641 80.4061V81.3237C321.641 82.1064 321.776 82.7698 322.045 83.3141C322.32 83.8539 322.7 84.2654 323.186 84.5488C323.671 84.8277 324.236 84.9672 324.879 84.9672C325.298 84.9672 325.675 84.9087 326.013 84.7917C326.355 84.6703 326.649 84.4904 326.897 84.252C327.144 84.0091 327.335 83.7077 327.47 83.3478L329.008 83.7797C328.847 84.3014 328.574 84.7602 328.192 85.1561C327.81 85.5474 327.337 85.8533 326.775 86.0737C326.213 86.2896 325.581 86.3975 324.879 86.3975ZM5.91064 119.284C5.14147 119.284 4.48025 119.185 3.92698 118.987C3.37371 118.794 2.91266 118.537 2.54381 118.218C2.17947 117.903 1.88934 117.566 1.67343 117.206L2.94189 116.315C3.08583 116.504 3.26801 116.72 3.48841 116.963C3.70882 117.21 4.01019 117.424 4.39253 117.604C4.77937 117.788 5.28541 117.881 5.91064 117.881C6.74729 117.881 7.43775 117.678 7.98202 117.273C8.52629 116.868 8.79843 116.234 8.79843 115.371V113.265H8.66349C8.54654 113.454 8.38011 113.688 8.1642 113.967C7.95278 114.242 7.64691 114.487 7.24658 114.703C6.85075 114.914 6.31547 115.02 5.64076 115.02C4.80411 115.02 4.05293 114.822 3.38721 114.426C2.72599 114.03 2.20196 113.454 1.81512 112.699C1.43278 111.943 1.24161 111.025 1.24161 109.946C1.24161 108.884 1.42828 107.96 1.80162 107.173C2.17497 106.381 2.6945 105.769 3.36022 105.338C4.02594 104.901 4.79511 104.683 5.66775 104.683C6.34246 104.683 6.87774 104.796 7.27357 105.02C7.6739 105.241 7.97977 105.493 8.19118 105.776C8.40709 106.055 8.57352 106.284 8.69047 106.464H8.85241V104.818H10.3908V115.479C10.3908 116.369 10.1883 117.093 9.78351 117.651C9.38318 118.213 8.84341 118.625 8.1642 118.886C7.48948 119.151 6.7383 119.284 5.91064 119.284ZM5.85667 113.589C6.4954 113.589 7.03517 113.443 7.47599 113.151C7.9168 112.858 8.25191 112.438 8.48131 111.889C8.71072 111.34 8.82542 110.684 8.82542 109.919C8.82542 109.172 8.71296 108.513 8.48806 107.942C8.26315 107.371 7.93029 106.923 7.48948 106.599C7.04867 106.275 6.50439 106.113 5.85667 106.113C5.18195 106.113 4.61969 106.284 4.16988 106.626C3.72457 106.968 3.38946 107.427 3.16455 108.003C2.94414 108.578 2.83394 109.217 2.83394 109.919C2.83394 110.639 2.94639 111.275 3.1713 111.828C3.4007 112.377 3.73806 112.809 4.18337 113.124C4.63318 113.434 5.19095 113.589 5.85667 113.589ZM13.3055 115.182V104.818H14.8979V115.182H13.3055ZM14.1152 103.091C13.8048 103.091 13.5372 102.985 13.3123 102.774C13.0919 102.562 12.9817 102.308 12.9817 102.011C12.9817 101.714 13.0919 101.46 13.3123 101.249C13.5372 101.037 13.8048 100.932 14.1152 100.932C14.4256 100.932 14.6909 101.037 14.9114 101.249C15.1363 101.46 15.2487 101.714 15.2487 102.011C15.2487 102.308 15.1363 102.562 14.9114 102.774C14.6909 102.985 14.4256 103.091 14.1152 103.091ZM26.2888 104.818L22.4564 115.182H20.837L17.0047 104.818H18.7319L21.5927 113.077H21.7007L24.5615 104.818H26.2888ZM32.3646 115.398C31.366 115.398 30.5046 115.177 29.7804 114.736C29.0607 114.291 28.5052 113.67 28.1139 112.874C27.727 112.073 27.5336 111.142 27.5336 110.081C27.5336 109.019 27.727 108.084 28.1139 107.274C28.5052 106.46 29.0495 105.826 29.7467 105.371C30.4484 104.912 31.267 104.683 32.2026 104.683C32.7424 104.683 33.2754 104.773 33.8017 104.953C34.328 105.133 34.807 105.425 35.2389 105.83C35.6707 106.23 36.0148 106.761 36.2712 107.422C36.5276 108.084 36.6558 108.898 36.6558 109.865V110.54H28.6671V109.163H35.0364C35.0364 108.578 34.9195 108.057 34.6856 107.598C34.4562 107.139 34.1278 106.777 33.7005 106.512C33.2777 106.246 32.7784 106.113 32.2026 106.113C31.5684 106.113 31.0196 106.271 30.5563 106.586C30.0975 106.896 29.7444 107.301 29.497 107.8C29.2496 108.3 29.1259 108.835 29.1259 109.406V110.324C29.1259 111.106 29.2609 111.77 29.5308 112.314C29.8051 112.854 30.1852 113.265 30.671 113.549C31.1568 113.828 31.7213 113.967 32.3646 113.967C32.7829 113.967 33.1607 113.909 33.4981 113.792C33.8399 113.67 34.1346 113.49 34.382 113.252C34.6294 113.009 34.8205 112.708 34.9555 112.348L36.4938 112.78C36.3319 113.301 36.0598 113.76 35.6774 114.156C35.2951 114.547 34.8228 114.853 34.2605 115.074C33.6983 115.29 33.0663 115.398 32.3646 115.398ZM48.9288 104.818V106.167H43.5581V104.818H48.9288ZM45.1234 102.335H46.7158V112.213C46.7158 112.663 46.781 113 46.9114 113.225C47.0464 113.445 47.2173 113.594 47.4242 113.67C47.6356 113.742 47.8583 113.778 48.0922 113.778C48.2676 113.778 48.4116 113.769 48.524 113.751C48.6365 113.729 48.7264 113.711 48.7939 113.697L49.1178 115.128C49.0098 115.168 48.8591 115.209 48.6657 115.249C48.4723 115.294 48.2271 115.317 47.9303 115.317C47.4805 115.317 47.0396 115.22 46.6078 115.026C46.1805 114.833 45.8252 114.538 45.5418 114.143C45.2629 113.747 45.1234 113.247 45.1234 112.645V102.335ZM53.1391 108.947V115.182H51.5467V101.363H53.1391V106.437H53.274C53.5169 105.902 53.8813 105.477 54.3671 105.162C54.8573 104.843 55.5096 104.683 56.3237 104.683C57.0299 104.683 57.6484 104.825 58.1792 105.108C58.71 105.387 59.1216 105.817 59.4139 106.397C59.7108 106.973 59.8592 107.706 59.8592 108.596V115.182H58.2669V108.704C58.2669 107.881 58.0533 107.245 57.6259 106.795C57.2031 106.341 56.6161 106.113 55.8649 106.113C55.3431 106.113 54.8753 106.224 54.4615 106.444C54.0522 106.664 53.7283 106.986 53.4899 107.409C53.256 107.832 53.1391 108.345 53.1391 108.947ZM67.1175 115.398C66.1189 115.398 65.2575 115.177 64.5333 114.736C63.8136 114.291 63.2581 113.67 62.8668 112.874C62.48 112.073 62.2865 111.142 62.2865 110.081C62.2865 109.019 62.48 108.084 62.8668 107.274C63.2581 106.46 63.8024 105.826 64.4996 105.371C65.2013 104.912 66.02 104.683 66.9556 104.683C67.4953 104.683 68.0284 104.773 68.5546 104.953C69.0809 105.133 69.56 105.425 69.9918 105.83C70.4236 106.23 70.7677 106.761 71.0241 107.422C71.2805 108.084 71.4087 108.898 71.4087 109.865V110.54H63.4201V109.163H69.7894C69.7894 108.578 69.6724 108.057 69.4385 107.598C69.2091 107.139 68.8808 106.777 68.4534 106.512C68.0306 106.246 67.5313 106.113 66.9556 106.113C66.3213 106.113 65.7726 106.271 65.3093 106.586C64.8505 106.896 64.4974 107.301 64.25 107.8C64.0026 108.3 63.8789 108.835 63.8789 109.406V110.324C63.8789 111.106 64.0138 111.77 64.2837 112.314C64.5581 112.854 64.9382 113.265 65.424 113.549C65.9098 113.828 66.4743 113.967 67.1175 113.967C67.5358 113.967 67.9137 113.909 68.251 113.792C68.5929 113.67 68.8875 113.49 69.1349 113.252C69.3823 113.009 69.5735 112.708 69.7084 112.348L71.2468 112.78C71.0848 113.301 70.8127 113.76 70.4304 114.156C70.048 114.547 69.5757 114.853 69.0134 115.074C68.4512 115.29 67.8192 115.398 67.1175 115.398ZM79.3906 115.182V101.363H80.9829V106.464H81.1179C81.2348 106.284 81.3967 106.055 81.6036 105.776C81.8151 105.493 82.1164 105.241 82.5078 105.02C82.9036 104.796 83.4389 104.683 84.1136 104.683C84.9862 104.683 85.7554 104.901 86.4211 105.338C87.0868 105.774 87.6064 106.392 87.9797 107.193C88.3531 107.994 88.5397 108.938 88.5397 110.027C88.5397 111.124 88.3531 112.076 87.9797 112.881C87.6064 113.682 87.0891 114.302 86.4279 114.743C85.7666 115.179 85.0042 115.398 84.1406 115.398C83.4749 115.398 82.9418 115.287 82.5415 115.067C82.1412 114.842 81.8331 114.588 81.6171 114.305C81.4012 114.017 81.2348 113.778 81.1179 113.589H80.9289V115.182H79.3906ZM80.9559 110C80.9559 110.782 81.0706 111.473 81.3 112.071C81.5294 112.665 81.8645 113.131 82.3054 113.468C82.7462 113.801 83.2859 113.967 83.9247 113.967C84.5904 113.967 85.1459 113.792 85.5912 113.441C86.041 113.086 86.3784 112.609 86.6033 112.01C86.8327 111.408 86.9474 110.738 86.9474 110C86.9474 109.271 86.8349 108.614 86.61 108.03C86.3896 107.44 86.0545 106.975 85.6047 106.633C85.1594 106.287 84.5994 106.113 83.9247 106.113C83.2769 106.113 82.7327 106.278 82.2919 106.606C81.851 106.93 81.5182 107.384 81.2933 107.969C81.0684 108.549 80.9559 109.226 80.9559 110ZM97.5067 110.944V104.818H99.099V115.182H97.5067V113.427H97.3987C97.1559 113.954 96.778 114.401 96.2652 114.77C95.7524 115.134 95.1047 115.317 94.322 115.317C93.6743 115.317 93.0986 115.175 92.5948 114.892C92.091 114.604 91.6951 114.172 91.4073 113.596C91.1194 113.016 90.9755 112.285 90.9755 111.403V104.818H92.5678V111.295C92.5678 112.051 92.7792 112.654 93.202 113.104C93.6293 113.553 94.1736 113.778 94.8348 113.778C95.2307 113.778 95.6332 113.677 96.0426 113.475C96.4564 113.272 96.8027 112.962 97.0816 112.544C97.365 112.125 97.5067 111.592 97.5067 110.944ZM103.608 101.363V115.182H102.015V101.363H103.608ZM108.009 111.403L107.982 109.433H108.306L112.84 104.818H114.81L109.979 109.703H109.844L108.009 111.403ZM106.524 115.182V101.363H108.117V115.182H106.524ZM113.11 115.182L109.061 110.054L110.195 108.947L115.134 115.182H113.11ZM126.413 115.398C125.478 115.398 124.657 115.175 123.951 114.73C123.249 114.284 122.7 113.661 122.304 112.861C121.913 112.06 121.717 111.124 121.717 110.054C121.717 108.974 121.913 108.032 122.304 107.227C122.7 106.422 123.249 105.796 123.951 105.351C124.657 104.906 125.478 104.683 126.413 104.683C127.349 104.683 128.167 104.906 128.869 105.351C129.575 105.796 130.124 106.422 130.515 107.227C130.911 108.032 131.109 108.974 131.109 110.054C131.109 111.124 130.911 112.06 130.515 112.861C130.124 113.661 129.575 114.284 128.869 114.73C128.167 115.175 127.349 115.398 126.413 115.398ZM126.413 113.967C127.124 113.967 127.709 113.785 128.167 113.421C128.626 113.056 128.966 112.577 129.186 111.983C129.407 111.39 129.517 110.747 129.517 110.054C129.517 109.361 129.407 108.716 129.186 108.117C128.966 107.519 128.626 107.036 128.167 106.667C127.709 106.298 127.124 106.113 126.413 106.113C125.703 106.113 125.118 106.298 124.659 106.667C124.2 107.036 123.861 107.519 123.64 108.117C123.42 108.716 123.31 109.361 123.31 110.054C123.31 110.747 123.42 111.39 123.64 111.983C123.861 112.577 124.2 113.056 124.659 113.421C125.118 113.785 125.703 113.967 126.413 113.967ZM138.155 104.818V106.167H132.568V104.818H138.155ZM134.242 115.182V103.388C134.242 102.794 134.381 102.299 134.66 101.903C134.939 101.507 135.301 101.211 135.746 101.013C136.192 100.815 136.662 100.716 137.156 100.716C137.548 100.716 137.867 100.747 138.114 100.81C138.362 100.873 138.546 100.932 138.668 100.986L138.209 102.362C138.128 102.335 138.016 102.301 137.872 102.261C137.732 102.22 137.548 102.2 137.318 102.2C136.792 102.2 136.412 102.333 136.178 102.598C135.949 102.864 135.834 103.253 135.834 103.765V115.182H134.242ZM145.73 119.068V104.818H147.269V106.464H147.458C147.575 106.284 147.736 106.055 147.943 105.776C148.155 105.493 148.456 105.241 148.848 105.02C149.243 104.796 149.779 104.683 150.453 104.683C151.326 104.683 152.095 104.901 152.761 105.338C153.427 105.774 153.946 106.392 154.319 107.193C154.693 107.994 154.879 108.938 154.879 110.027C154.879 111.124 154.693 112.076 154.319 112.881C153.946 113.682 153.429 114.302 152.768 114.743C152.106 115.179 151.344 115.398 150.48 115.398C149.815 115.398 149.282 115.287 148.881 115.067C148.481 114.842 148.173 114.588 147.957 114.305C147.741 114.017 147.575 113.778 147.458 113.589H147.323V119.068H145.73ZM147.296 110C147.296 110.782 147.41 111.473 147.64 112.071C147.869 112.665 148.204 113.131 148.645 113.468C149.086 113.801 149.626 113.967 150.264 113.967C150.93 113.967 151.486 113.792 151.931 113.441C152.381 113.086 152.718 112.609 152.943 112.01C153.172 111.408 153.287 110.738 153.287 110C153.287 109.271 153.175 108.614 152.95 108.03C152.729 107.44 152.394 106.975 151.944 106.633C151.499 106.287 150.939 106.113 150.264 106.113C149.617 106.113 149.072 106.278 148.632 106.606C148.191 106.93 147.858 107.384 147.633 107.969C147.408 108.549 147.296 109.226 147.296 110ZM157.308 115.182V104.818H158.847V106.383H158.955C159.144 105.871 159.486 105.454 159.98 105.135C160.475 104.816 161.033 104.656 161.654 104.656C161.771 104.656 161.917 104.658 162.092 104.663C162.268 104.667 162.4 104.674 162.49 104.683V106.302C162.436 106.289 162.313 106.269 162.119 106.242C161.93 106.21 161.73 106.194 161.519 106.194C161.015 106.194 160.565 106.3 160.169 106.512C159.778 106.718 159.468 107.006 159.238 107.375C159.013 107.74 158.901 108.156 158.901 108.623V115.182H157.308ZM168.273 115.398C167.337 115.398 166.516 115.175 165.81 114.73C165.108 114.284 164.559 113.661 164.164 112.861C163.772 112.06 163.577 111.124 163.577 110.054C163.577 108.974 163.772 108.032 164.164 107.227C164.559 106.422 165.108 105.796 165.81 105.351C166.516 104.906 167.337 104.683 168.273 104.683C169.208 104.683 170.027 104.906 170.729 105.351C171.435 105.796 171.984 106.422 172.375 107.227C172.771 108.032 172.969 108.974 172.969 110.054C172.969 111.124 172.771 112.06 172.375 112.861C171.984 113.661 171.435 114.284 170.729 114.73C170.027 115.175 169.208 115.398 168.273 115.398ZM168.273 113.967C168.983 113.967 169.568 113.785 170.027 113.421C170.486 113.056 170.825 112.577 171.046 111.983C171.266 111.39 171.376 110.747 171.376 110.054C171.376 109.361 171.266 108.716 171.046 108.117C170.825 107.519 170.486 107.036 170.027 106.667C169.568 106.298 168.983 106.113 168.273 106.113C167.562 106.113 166.977 106.298 166.518 106.667C166.06 107.036 165.72 107.519 165.5 108.117C165.279 108.716 165.169 109.361 165.169 110.054C165.169 110.747 165.279 111.39 165.5 111.983C165.72 112.577 166.06 113.056 166.518 113.421C166.977 113.785 167.562 113.967 168.273 113.967ZM180.014 104.818V106.167H174.428V104.818H180.014ZM176.101 115.182V103.388C176.101 102.794 176.24 102.299 176.519 101.903C176.798 101.507 177.16 101.211 177.606 101.013C178.051 100.815 178.521 100.716 179.016 100.716C179.407 100.716 179.726 100.747 179.974 100.81C180.221 100.873 180.406 100.932 180.527 100.986L180.068 102.362C179.987 102.335 179.875 102.301 179.731 102.261C179.592 102.22 179.407 102.2 179.178 102.2C178.651 102.2 178.271 102.333 178.037 102.598C177.808 102.864 177.693 103.253 177.693 103.765V115.182H176.101ZM182.246 115.182V104.818H183.838V115.182H182.246ZM183.056 103.091C182.745 103.091 182.478 102.985 182.253 102.774C182.032 102.562 181.922 102.308 181.922 102.011C181.922 101.714 182.032 101.46 182.253 101.249C182.478 101.037 182.745 100.932 183.056 100.932C183.366 100.932 183.631 101.037 183.852 101.249C184.077 101.46 184.189 101.714 184.189 102.011C184.189 102.308 184.077 102.562 183.852 102.774C183.631 102.985 183.366 103.091 183.056 103.091ZM191.262 104.818V106.167H185.891V104.818H191.262ZM187.456 102.335H189.049V112.213C189.049 112.663 189.114 113 189.244 113.225C189.379 113.445 189.55 113.594 189.757 113.67C189.969 113.742 190.191 113.778 190.425 113.778C190.601 113.778 190.745 113.769 190.857 113.751C190.969 113.729 191.059 113.711 191.127 113.697L191.451 115.128C191.343 115.168 191.192 115.209 190.999 115.249C190.805 115.294 190.56 115.317 190.263 115.317C189.813 115.317 189.373 115.22 188.941 115.026C188.514 114.833 188.158 114.538 187.875 114.143C187.596 113.747 187.456 113.247 187.456 112.645V102.335ZM200.812 107.139L199.382 107.544C199.292 107.305 199.159 107.074 198.984 106.849C198.813 106.619 198.579 106.431 198.282 106.282C197.985 106.134 197.605 106.059 197.142 106.059C196.508 106.059 195.979 106.206 195.556 106.498C195.138 106.786 194.929 107.153 194.929 107.598C194.929 107.994 195.073 108.306 195.361 108.536C195.649 108.765 196.098 108.956 196.71 109.109L198.249 109.487C199.175 109.712 199.866 110.056 200.32 110.519C200.774 110.978 201.001 111.57 201.001 112.294C201.001 112.888 200.83 113.418 200.489 113.886C200.151 114.354 199.679 114.723 199.072 114.993C198.464 115.263 197.758 115.398 196.953 115.398C195.896 115.398 195.021 115.168 194.328 114.709C193.636 114.251 193.197 113.58 193.013 112.699L194.524 112.321C194.668 112.879 194.94 113.297 195.341 113.576C195.745 113.855 196.274 113.994 196.926 113.994C197.668 113.994 198.258 113.837 198.694 113.522C199.135 113.202 199.355 112.82 199.355 112.375C199.355 112.015 199.229 111.714 198.977 111.471C198.725 111.223 198.338 111.039 197.817 110.917L196.089 110.513C195.14 110.288 194.443 109.939 193.998 109.467C193.557 108.99 193.337 108.394 193.337 107.679C193.337 107.094 193.501 106.577 193.829 106.127C194.162 105.677 194.614 105.324 195.185 105.068C195.761 104.811 196.413 104.683 197.142 104.683C198.168 104.683 198.973 104.908 199.557 105.358C200.147 105.808 200.565 106.401 200.812 107.139ZM213.249 104.818V106.167H207.878V104.818H213.249ZM209.444 102.335H211.036V112.213C211.036 112.663 211.101 113 211.232 113.225C211.367 113.445 211.538 113.594 211.745 113.67C211.956 113.742 212.179 113.778 212.413 113.778C212.588 113.778 212.732 113.769 212.844 113.751C212.957 113.729 213.047 113.711 213.114 113.697L213.438 115.128C213.33 115.168 213.179 115.209 212.986 115.249C212.793 115.294 212.547 115.317 212.251 115.317C211.801 115.317 211.36 115.22 210.928 115.026C210.501 114.833 210.145 114.538 209.862 114.143C209.583 113.747 209.444 113.247 209.444 112.645V102.335ZM219.743 115.398C218.808 115.398 217.987 115.175 217.281 114.73C216.579 114.284 216.03 113.661 215.634 112.861C215.243 112.06 215.047 111.124 215.047 110.054C215.047 108.974 215.243 108.032 215.634 107.227C216.03 106.422 216.579 105.796 217.281 105.351C217.987 104.906 218.808 104.683 219.743 104.683C220.679 104.683 221.498 104.906 222.199 105.351C222.905 105.796 223.454 106.422 223.846 107.227C224.241 108.032 224.439 108.974 224.439 110.054C224.439 111.124 224.241 112.06 223.846 112.861C223.454 113.661 222.905 114.284 222.199 114.73C221.498 115.175 220.679 115.398 219.743 115.398ZM219.743 113.967C220.454 113.967 221.039 113.785 221.498 113.421C221.956 113.056 222.296 112.577 222.516 111.983C222.737 111.39 222.847 110.747 222.847 110.054C222.847 109.361 222.737 108.716 222.516 108.117C222.296 107.519 221.956 107.036 221.498 106.667C221.039 106.298 220.454 106.113 219.743 106.113C219.033 106.113 218.448 106.298 217.989 106.667C217.53 107.036 217.191 107.519 216.97 108.117C216.75 108.716 216.64 109.361 216.64 110.054C216.64 110.747 216.75 111.39 216.97 111.983C217.191 112.577 217.53 113.056 217.989 113.421C218.448 113.785 219.033 113.967 219.743 113.967ZM236.424 115.398C235.488 115.398 234.667 115.175 233.961 114.73C233.26 114.284 232.711 113.661 232.315 112.861C231.924 112.06 231.728 111.124 231.728 110.054C231.728 108.974 231.924 108.032 232.315 107.227C232.711 106.422 233.26 105.796 233.961 105.351C234.667 104.906 235.488 104.683 236.424 104.683C237.36 104.683 238.178 104.906 238.88 105.351C239.586 105.796 240.135 106.422 240.526 107.227C240.922 108.032 241.12 108.974 241.12 110.054C241.12 111.124 240.922 112.06 240.526 112.861C240.135 113.661 239.586 114.284 238.88 114.73C238.178 115.175 237.36 115.398 236.424 115.398ZM236.424 113.967C237.135 113.967 237.719 113.785 238.178 113.421C238.637 113.056 238.977 112.577 239.197 111.983C239.417 111.39 239.528 110.747 239.528 110.054C239.528 109.361 239.417 108.716 239.197 108.117C238.977 107.519 238.637 107.036 238.178 106.667C237.719 106.298 237.135 106.113 236.424 106.113C235.713 106.113 235.129 106.298 234.67 106.667C234.211 107.036 233.871 107.519 233.651 108.117C233.43 108.716 233.32 109.361 233.32 110.054C233.32 110.747 233.43 111.39 233.651 111.983C233.871 112.577 234.211 113.056 234.67 113.421C235.129 113.785 235.713 113.967 236.424 113.967ZM250.082 110.944V104.818H251.674V115.182H250.082V113.427H249.974C249.731 113.954 249.353 114.401 248.84 114.77C248.328 115.134 247.68 115.317 246.897 115.317C246.25 115.317 245.674 115.175 245.17 114.892C244.666 114.604 244.27 114.172 243.982 113.596C243.695 113.016 243.551 112.285 243.551 111.403V104.818H245.143V111.295C245.143 112.051 245.354 112.654 245.777 113.104C246.205 113.553 246.749 113.778 247.41 113.778C247.806 113.778 248.208 113.677 248.618 113.475C249.032 113.272 249.378 112.962 249.657 112.544C249.94 112.125 250.082 111.592 250.082 110.944ZM254.591 115.182V104.818H256.129V106.383H256.237C256.426 105.871 256.768 105.454 257.263 105.135C257.757 104.816 258.315 104.656 258.936 104.656C259.053 104.656 259.199 104.658 259.374 104.663C259.55 104.667 259.683 104.674 259.773 104.683V106.302C259.719 106.289 259.595 106.269 259.401 106.242C259.212 106.21 259.012 106.194 258.801 106.194C258.297 106.194 257.847 106.3 257.451 106.512C257.06 106.718 256.75 107.006 256.52 107.375C256.295 107.74 256.183 108.156 256.183 108.623V115.182H254.591ZM5.93763 144.398C4.96604 144.398 4.12939 144.168 3.42769 143.709C2.72599 143.251 2.18621 142.619 1.80837 141.813C1.43053 141.008 1.24161 140.088 1.24161 139.054C1.24161 138.001 1.43503 137.072 1.82187 136.267C2.2132 135.458 2.75747 134.826 3.45468 134.371C4.15638 133.912 4.97504 133.683 5.91064 133.683C6.63934 133.683 7.29606 133.818 7.88082 134.088C8.46557 134.358 8.94462 134.736 9.31796 135.221C9.6913 135.707 9.92296 136.274 10.0129 136.922H8.42059C8.29914 136.449 8.02925 136.031 7.61093 135.667C7.1971 135.298 6.63934 135.113 5.93763 135.113C5.31689 135.113 4.77262 135.275 4.30482 135.599C3.84152 135.919 3.47942 136.371 3.21853 136.955C2.96214 137.536 2.83394 138.217 2.83394 139C2.83394 139.8 2.95989 140.498 3.21178 141.091C3.46817 141.685 3.82802 142.146 4.29133 142.475C4.75913 142.803 5.3079 142.967 5.93763 142.967C6.35146 142.967 6.72705 142.895 7.06441 142.751C7.40177 142.607 7.6874 142.4 7.9213 142.131C8.1552 141.861 8.32163 141.537 8.42059 141.159H10.0129C9.92296 141.771 9.7003 142.322 9.34495 142.812C8.9941 143.298 8.52854 143.685 7.94829 143.972C7.37253 144.256 6.70231 144.398 5.93763 144.398ZM12.3407 144.182V133.818H13.879V135.383H13.987C14.1759 134.871 14.5178 134.454 15.0126 134.135C15.5074 133.816 16.0651 133.656 16.6859 133.656C16.8028 133.656 16.949 133.658 17.1244 133.663C17.2998 133.667 17.4325 133.674 17.5225 133.683V135.302C17.4685 135.289 17.3448 135.269 17.1514 135.242C16.9625 135.21 16.7623 135.194 16.5509 135.194C16.0471 135.194 15.5973 135.3 15.2015 135.512C14.8101 135.718 14.4998 136.006 14.2704 136.375C14.0455 136.74 13.933 137.156 13.933 137.623V144.182H12.3407ZM23.4398 144.398C22.4412 144.398 21.5798 144.177 20.8556 143.736C20.1359 143.291 19.5804 142.67 19.1891 141.874C18.8022 141.073 18.6088 140.142 18.6088 139.081C18.6088 138.019 18.8022 137.084 19.1891 136.274C19.5804 135.46 20.1247 134.826 20.8219 134.371C21.5236 133.912 22.3422 133.683 23.2778 133.683C23.8176 133.683 24.3506 133.773 24.8769 133.953C25.4032 134.133 25.8822 134.425 26.3141 134.83C26.7459 135.23 27.09 135.761 27.3464 136.422C27.6028 137.084 27.731 137.898 27.731 138.865V139.54H19.7423V138.163H26.1116C26.1116 137.578 25.9947 137.057 25.7608 136.598C25.5314 136.139 25.203 135.777 24.7757 135.512C24.3529 135.246 23.8536 135.113 23.2778 135.113C22.6436 135.113 22.0948 135.271 21.6315 135.586C21.1727 135.896 20.8196 136.301 20.5722 136.8C20.3248 137.3 20.2011 137.835 20.2011 138.406V139.324C20.2011 140.106 20.3361 140.77 20.606 141.314C20.8803 141.854 21.2604 142.265 21.7462 142.549C22.232 142.828 22.7965 142.967 23.4398 142.967C23.8581 142.967 24.2359 142.909 24.5733 142.792C24.9151 142.67 25.2098 142.49 25.4572 142.252C25.7046 142.009 25.8957 141.708 26.0307 141.348L27.569 141.78C27.4071 142.301 27.135 142.76 26.7526 143.156C26.3703 143.547 25.898 143.853 25.3357 144.074C24.7735 144.29 24.1415 144.398 23.4398 144.398ZM33.2029 144.425C32.5462 144.425 31.9502 144.301 31.4149 144.053C30.8796 143.802 30.4546 143.439 30.1397 142.967C29.8248 142.49 29.6674 141.915 29.6674 141.24C29.6674 140.646 29.7843 140.165 30.0182 139.796C30.2521 139.423 30.5648 139.13 30.9561 138.919C31.3474 138.707 31.7793 138.55 32.2516 138.447C32.7284 138.339 33.2074 138.253 33.6887 138.19C34.3184 138.109 34.829 138.048 35.2203 138.008C35.6161 137.963 35.904 137.889 36.0839 137.785C36.2684 137.682 36.3606 137.502 36.3606 137.246V137.192C36.3606 136.526 36.1784 136.009 35.8141 135.64C35.4542 135.271 34.9077 135.086 34.1745 135.086C33.4143 135.086 32.8183 135.253 32.3865 135.586C31.9547 135.919 31.6511 136.274 31.4756 136.652L29.9643 136.112C30.2342 135.482 30.594 134.992 31.0438 134.641C31.4981 134.286 31.9929 134.038 32.5282 133.899C33.068 133.755 33.5987 133.683 34.1205 133.683C34.4534 133.683 34.8357 133.724 35.2675 133.805C35.7039 133.881 36.1244 134.041 36.5293 134.284C36.9386 134.526 37.2782 134.893 37.5481 135.383C37.818 135.874 37.9529 136.53 37.9529 137.354V144.182H36.3606V142.778H36.2796C36.1717 143.003 35.9917 143.244 35.7398 143.5C35.4879 143.757 35.1528 143.975 34.7345 144.155C34.3162 144.335 33.8056 144.425 33.2029 144.425ZM33.4458 142.994C34.0755 142.994 34.6063 142.87 35.0381 142.623C35.4744 142.376 35.8028 142.056 36.0232 141.665C36.2481 141.274 36.3606 140.862 36.3606 140.43V138.973C36.2931 139.054 36.1447 139.128 35.9153 139.195C35.6904 139.258 35.4295 139.315 35.1326 139.364C34.8402 139.409 34.5546 139.45 34.2757 139.486C34.0013 139.517 33.7787 139.544 33.6077 139.567C33.1939 139.621 32.8071 139.708 32.4472 139.83C32.0919 139.947 31.804 140.124 31.5836 140.363C31.3677 140.597 31.2597 140.916 31.2597 141.321C31.2597 141.874 31.4644 142.292 31.8737 142.576C32.2875 142.855 32.8116 142.994 33.4458 142.994ZM45.3663 133.818V135.167H39.9956V133.818H45.3663ZM41.5609 131.335H43.1533V141.213C43.1533 141.663 43.2185 142 43.3489 142.225C43.4839 142.445 43.6548 142.594 43.8617 142.67C44.0731 142.742 44.2958 142.778 44.5297 142.778C44.7051 142.778 44.8491 142.769 44.9615 142.751C45.074 142.729 45.1639 142.711 45.2314 142.697L45.5553 144.128C45.4473 144.168 45.2966 144.209 45.1032 144.249C44.9098 144.294 44.6646 144.317 44.3678 144.317C43.918 144.317 43.4771 144.22 43.0453 144.026C42.618 143.833 42.2627 143.538 41.9793 143.143C41.7004 142.747 41.5609 142.247 41.5609 141.645V131.335ZM51.8605 144.398C50.9249 144.398 50.104 144.175 49.3978 143.73C48.6961 143.284 48.1473 142.661 47.7515 141.861C47.3601 141.06 47.1645 140.124 47.1645 139.054C47.1645 137.974 47.3601 137.032 47.7515 136.227C48.1473 135.422 48.6961 134.796 49.3978 134.351C50.104 133.906 50.9249 133.683 51.8605 133.683C52.7961 133.683 53.6147 133.906 54.3165 134.351C55.0227 134.796 55.5714 135.422 55.9628 136.227C56.3586 137.032 56.5565 137.974 56.5565 139.054C56.5565 140.124 56.3586 141.06 55.9628 141.861C55.5714 142.661 55.0227 143.284 54.3165 143.73C53.6147 144.175 52.7961 144.398 51.8605 144.398ZM51.8605 142.967C52.5712 142.967 53.1559 142.785 53.6147 142.421C54.0736 142.056 54.4132 141.577 54.6336 140.983C54.854 140.39 54.9642 139.747 54.9642 139.054C54.9642 138.361 54.854 137.716 54.6336 137.117C54.4132 136.519 54.0736 136.036 53.6147 135.667C53.1559 135.298 52.5712 135.113 51.8605 135.113C51.1498 135.113 50.565 135.298 50.1062 135.667C49.6474 136.036 49.3078 136.519 49.0874 137.117C48.867 137.716 48.7568 138.361 48.7568 139.054C48.7568 139.747 48.867 140.39 49.0874 140.983C49.3078 141.577 49.6474 142.056 50.1062 142.421C50.565 142.785 51.1498 142.967 51.8605 142.967ZM58.9872 144.182V133.818H60.5255V135.383H60.6335C60.8224 134.871 61.1643 134.454 61.659 134.135C62.1538 133.816 62.7116 133.656 63.3323 133.656C63.4493 133.656 63.5955 133.658 63.7709 133.663C63.9463 133.667 64.079 133.674 64.169 133.683V135.302C64.115 135.289 63.9913 135.269 63.7979 135.242C63.609 135.21 63.4088 135.194 63.1974 135.194C62.6936 135.194 62.2438 135.3 61.848 135.512C61.4566 135.718 61.1463 136.006 60.9169 136.375C60.692 136.74 60.5795 137.156 60.5795 137.623V144.182H58.9872ZM73.3974 136.139L71.967 136.544C71.8771 136.305 71.7444 136.074 71.5689 135.849C71.398 135.619 71.1641 135.431 70.8672 135.282C70.5704 135.134 70.1903 135.059 69.727 135.059C69.0927 135.059 68.5642 135.206 68.1414 135.498C67.7231 135.786 67.5139 136.153 67.5139 136.598C67.5139 136.994 67.6578 137.306 67.9457 137.536C68.2336 137.765 68.6834 137.956 69.2951 138.109L70.8335 138.487C71.7601 138.712 72.4506 139.056 72.9049 139.519C73.3592 139.978 73.5863 140.57 73.5863 141.294C73.5863 141.888 73.4154 142.418 73.0736 142.886C72.7362 143.354 72.2639 143.723 71.6566 143.993C71.0494 144.263 70.3432 144.398 69.538 144.398C68.481 144.398 67.6061 144.168 66.9134 143.709C66.2207 143.251 65.7821 142.58 65.5977 141.699L67.1091 141.321C67.253 141.879 67.5251 142.297 67.9255 142.576C68.3303 142.855 68.8588 142.994 69.5111 142.994C70.2532 142.994 70.8425 142.837 71.2788 142.522C71.7196 142.202 71.94 141.82 71.94 141.375C71.94 141.015 71.8141 140.714 71.5622 140.471C71.3103 140.223 70.9235 140.039 70.4017 139.917L68.6744 139.513C67.7253 139.288 67.0281 138.939 66.5828 138.467C66.142 137.99 65.9216 137.394 65.9216 136.679C65.9216 136.094 66.0857 135.577 66.4141 135.127C66.747 134.677 67.199 134.324 67.7703 134.068C68.346 133.811 68.9983 133.683 69.727 133.683C70.7525 133.683 71.5577 133.908 72.1424 134.358C72.7317 134.808 73.15 135.401 73.3974 136.139ZM77.1438 144.29C76.8109 144.29 76.5253 144.17 76.2869 143.932C76.0485 143.694 75.9293 143.408 75.9293 143.075C75.9293 142.742 76.0485 142.457 76.2869 142.218C76.5253 141.98 76.8109 141.861 77.1438 141.861C77.4766 141.861 77.7623 141.98 78.0007 142.218C78.2391 142.457 78.3583 142.742 78.3583 143.075C78.3583 143.296 78.302 143.498 78.1896 143.682C78.0816 143.867 77.9354 144.015 77.751 144.128C77.5711 144.236 77.3687 144.29 77.1438 144.29Z" fill="white"/>
<g clip-path="url(#clip0_166_8)">
<path d="M23.6033 24.2729C23.6033 22.6614 19.0329 21.3562 13.3949 21.3562M23.6033 24.2729C23.6033 25.8843 19.0329 27.1895 13.3949 27.1895C7.75702 27.1895 3.1866 25.8843 3.1866 24.2729M23.6033 24.2729V31.4727C23.6033 33.1337 19.0329 34.4812 13.3949 34.4812C7.75702 34.4812 3.1866 33.1352 3.1866 31.4727V24.2729M23.6033 24.2729C29.1799 24.2729 33.8116 22.8335 33.8116 21.3562V6.77287M13.3949 21.3562C7.75702 21.3562 3.1866 22.6614 3.1866 24.2729M13.3949 21.3562C6.95202 21.3562 1.72827 19.9168 1.72827 18.4395V11.1479M13.3949 8.2312C6.95202 8.2312 1.72827 9.53641 1.72827 11.1479M1.72827 11.1479C1.72827 12.7593 6.95202 14.0645 13.3949 14.0645C13.3949 15.5418 18.1389 16.9812 23.7156 16.9812C29.2922 16.9812 33.8116 15.5418 33.8116 14.0645M33.8116 6.77287C33.8116 5.16141 29.2908 3.8562 23.7156 3.8562C18.1404 3.8562 13.6195 5.16141 13.6195 6.77287M33.8116 6.77287C33.8116 8.38433 29.2908 9.68953 23.7156 9.68953C18.1404 9.68953 13.6195 8.38433 13.6195 6.77287M13.6195 6.77287V21.5983" stroke="white" stroke-width="2"/>
</g>
<defs>
<clipPath id="clip0_166_8">
<rect width="35" height="35" fill="white" transform="translate(0.27002 0.939453)"/>
</clipPath>
</defs>
</svg>
