<svg width="342" height="151" viewBox="0 0 342 151" fill="none" xmlns="http://www.w3.org/2000/svg">
<path d="M13.3324 82.212C13.3324 83.6694 13.0692 84.9289 12.543 85.9904C12.0167 87.052 11.2947 87.8706 10.3771 88.4464C9.45952 89.0221 8.41146 89.31 7.23296 89.31C6.05445 89.31 5.00639 89.0221 4.08878 88.4464C3.17116 87.8706 2.44922 87.052 1.92294 85.9904C1.39666 84.9289 1.13352 83.6694 1.13352 82.212C1.13352 80.7546 1.39666 79.4951 1.92294 78.4336C2.44922 77.372 3.17116 76.5534 4.08878 75.9776C5.00639 75.4019 6.05445 75.114 7.23296 75.114C8.41146 75.114 9.45952 75.4019 10.3771 75.9776C11.2947 76.5534 12.0167 77.372 12.543 78.4336C13.0692 79.4951 13.3324 80.7546 13.3324 82.212ZM11.7131 82.212C11.7131 81.0155 11.5129 80.0057 11.1126 79.1825C10.7167 78.3594 10.1792 77.7364 9.5 77.3136C8.82528 76.8907 8.0696 76.6793 7.23296 76.6793C6.39631 76.6793 5.63838 76.8907 4.95916 77.3136C4.28445 77.7364 3.74692 78.3594 3.34659 79.1825C2.95076 80.0057 2.75284 81.0155 2.75284 82.212C2.75284 83.4085 2.95076 84.4183 3.34659 85.2415C3.74692 86.0646 4.28445 86.6876 4.95916 87.1104C5.63838 87.5333 6.39631 87.7447 7.23296 87.7447C8.0696 87.7447 8.82528 87.5333 9.5 87.1104C10.1792 86.6876 10.7167 86.0646 11.1126 85.2415C11.5129 84.4183 11.7131 83.4085 11.7131 82.212ZM22.4613 84.8839V78.7575H24.0536V89.1211H22.4613V87.3668H22.3533C22.1104 87.8931 21.7326 88.3407 21.2198 88.7095C20.707 89.0739 20.0593 89.256 19.2766 89.256C18.6289 89.256 18.0531 89.1143 17.5494 88.831C17.0456 88.5431 16.6497 88.1113 16.3619 87.5355C16.074 86.9553 15.93 86.2243 15.93 85.3427V78.7575H17.5224V85.2347C17.5224 85.9904 17.7338 86.5932 18.1566 87.043C18.5839 87.4928 19.1282 87.7177 19.7894 87.7177C20.1853 87.7177 20.5878 87.6165 20.9972 87.4141C21.411 87.2116 21.7573 86.9013 22.0362 86.483C22.3196 86.0646 22.4613 85.5316 22.4613 84.8839ZM26.9701 89.1211V78.7575H28.5084V80.3228H28.6164C28.8053 79.81 29.1472 79.3939 29.642 79.0746C30.1367 78.7552 30.6945 78.5955 31.3153 78.5955C31.4322 78.5955 31.5784 78.5978 31.7538 78.6023C31.9292 78.6068 32.0619 78.6135 32.1519 78.6225V80.2418C32.0979 80.2283 31.9742 80.2081 31.7808 80.1811C31.5919 80.1496 31.3917 80.1339 31.1803 80.1339C30.6765 80.1339 30.2267 80.2396 29.8309 80.451C29.4395 80.6579 29.1292 80.9458 28.8998 81.3146C28.6749 81.679 28.5624 82.0951 28.5624 82.5629V89.1211H26.9701ZM46.7241 81.0785L45.2937 81.4833C45.2037 81.2449 45.071 81.0133 44.8956 80.7884C44.7247 80.5589 44.4908 80.37 44.1939 80.2216C43.897 80.0732 43.5169 79.9989 43.0536 79.9989C42.4194 79.9989 41.8909 80.1451 41.468 80.4375C41.0497 80.7254 40.8406 81.092 40.8406 81.5373C40.8406 81.9331 40.9845 82.2457 41.2724 82.4751C41.5603 82.7045 42.0101 82.8957 42.6218 83.0487L44.1602 83.4265C45.0868 83.6514 45.7772 83.9955 46.2315 84.4588C46.6858 84.9176 46.913 85.5091 46.913 86.2333C46.913 86.8271 46.7421 87.3578 46.4002 87.8256C46.0629 88.2934 45.5906 88.6623 44.9833 88.9322C44.3761 89.2021 43.6699 89.337 42.8647 89.337C41.8076 89.337 40.9328 89.1076 40.2401 88.6488C39.5473 88.19 39.1088 87.5198 38.9244 86.6381L40.4357 86.2603C40.5797 86.8181 40.8518 87.2364 41.2521 87.5153C41.657 87.7942 42.1855 87.9336 42.8377 87.9336C43.5799 87.9336 44.1692 87.7762 44.6055 87.4613C45.0463 87.1419 45.2667 86.7596 45.2667 86.3143C45.2667 85.9544 45.1407 85.6531 44.8888 85.4102C44.637 85.1628 44.2501 84.9783 43.7283 84.8569L42.0011 84.4521C41.052 84.2272 40.3548 83.8786 39.9094 83.4062C39.4686 82.9295 39.2482 82.3335 39.2482 81.6183C39.2482 81.0335 39.4124 80.5162 39.7408 80.0664C40.0736 79.6166 40.5257 79.2635 41.0969 79.0071C41.6727 78.7507 42.3249 78.6225 43.0536 78.6225C44.0792 78.6225 44.8844 78.8474 45.4691 79.2972C46.0584 79.747 46.4767 80.3408 46.7241 81.0785ZM53.817 78.7575V80.1069H48.4463V78.7575H53.817ZM50.0116 76.2745H51.604V86.1523C51.604 86.6022 51.6692 86.9395 51.7996 87.1644C51.9346 87.3848 52.1055 87.5333 52.3124 87.6097C52.5238 87.6817 52.7465 87.7177 52.9804 87.7177C53.1558 87.7177 53.2997 87.7087 53.4122 87.6907C53.5247 87.6682 53.6146 87.6502 53.6821 87.6367L54.0059 89.0671C53.898 89.1076 53.7473 89.1481 53.5539 89.1886C53.3605 89.2335 53.1153 89.256 52.8184 89.256C52.3686 89.256 51.9278 89.1593 51.496 88.9659C51.0687 88.7725 50.7133 88.4779 50.43 88.082C50.1511 87.6862 50.0116 87.1869 50.0116 86.5842V76.2745ZM56.2123 89.1211V78.7575H57.7506V80.3228H57.8586C58.0475 79.81 58.3894 79.3939 58.8841 79.0746C59.3789 78.7552 59.9367 78.5955 60.5574 78.5955C60.6744 78.5955 60.8206 78.5978 60.996 78.6023C61.1714 78.6068 61.3041 78.6135 61.3941 78.6225V80.2418C61.3401 80.2283 61.2164 80.2081 61.023 80.1811C60.8341 80.1496 60.6339 80.1339 60.4225 80.1339C59.9187 80.1339 59.4689 80.2396 59.0731 80.451C58.6817 80.6579 58.3714 80.9458 58.142 81.3146C57.9171 81.679 57.8046 82.0951 57.8046 82.5629V89.1211H56.2123ZM66.3313 89.364C65.6746 89.364 65.0786 89.2403 64.5433 88.9929C64.008 88.741 63.583 88.3789 63.2681 87.9066C62.9532 87.4298 62.7958 86.854 62.7958 86.1793C62.7958 85.5856 62.9128 85.1043 63.1467 84.7354C63.3806 84.3621 63.6932 84.0697 64.0845 83.8583C64.4759 83.6469 64.9077 83.4895 65.38 83.386C65.8568 83.2781 66.3358 83.1926 66.8171 83.1296C67.4469 83.0487 67.9574 82.9879 68.3487 82.9474C68.7446 82.9025 69.0324 82.8282 69.2124 82.7248C69.3968 82.6213 69.489 82.4414 69.489 82.185V82.131C69.489 81.4653 69.3068 80.948 68.9425 80.5792C68.5826 80.2103 68.0361 80.0259 67.3029 80.0259C66.5427 80.0259 65.9467 80.1924 65.5149 80.5252C65.0831 80.8581 64.7795 81.2134 64.604 81.5913L63.0927 81.0515C63.3626 80.4218 63.7224 79.9315 64.1722 79.5806C64.6265 79.2253 65.1213 78.9779 65.6566 78.8384C66.1964 78.6945 66.7272 78.6225 67.2489 78.6225C67.5818 78.6225 67.9641 78.663 68.396 78.744C68.8323 78.8204 69.2528 78.9801 69.6577 79.223C70.067 79.4659 70.4066 79.8325 70.6765 80.3228C70.9464 80.8131 71.0813 81.4698 71.0813 82.293V89.1211H69.489V87.7177H69.408C69.3001 87.9426 69.1201 88.1832 68.8683 88.4396C68.6164 88.696 68.2813 88.9142 67.8629 89.0941C67.4446 89.274 66.9341 89.364 66.3313 89.364ZM66.5742 87.9336C67.204 87.9336 67.7347 87.8099 68.1665 87.5625C68.6029 87.3151 68.9312 86.9957 69.1516 86.6044C69.3765 86.2131 69.489 85.8015 69.489 85.3697V83.9123C69.4215 83.9933 69.2731 84.0675 69.0437 84.1349C68.8188 84.1979 68.5579 84.2541 68.261 84.3036C67.9686 84.3486 67.683 84.3891 67.4041 84.4251C67.1297 84.4566 66.9071 84.4835 66.7362 84.506C66.3223 84.56 65.9355 84.6477 65.5756 84.7692C65.2203 84.8861 64.9324 85.0638 64.712 85.3022C64.4961 85.5361 64.3881 85.8555 64.3881 86.2603C64.3881 86.8136 64.5928 87.2319 65.0021 87.5153C65.416 87.7942 65.94 87.9336 66.5742 87.9336ZM78.4948 78.7575V80.1069H73.124V78.7575H78.4948ZM74.6894 76.2745H76.2817V86.1523C76.2817 86.6022 76.3469 86.9395 76.4774 87.1644C76.6123 87.3848 76.7832 87.5333 76.9901 87.6097C77.2016 87.6817 77.4242 87.7177 77.6581 87.7177C77.8335 87.7177 77.9775 87.7087 78.0899 87.6907C78.2024 87.6682 78.2923 87.6502 78.3598 87.6367L78.6837 89.0671C78.5757 89.1076 78.425 89.1481 78.2316 89.1886C78.0382 89.2335 77.7931 89.256 77.4962 89.256C77.0464 89.256 76.6056 89.1593 76.1737 88.9659C75.7464 88.7725 75.3911 88.4779 75.1077 88.082C74.8288 87.6862 74.6894 87.1869 74.6894 86.5842V76.2745ZM85.1238 89.337C84.1253 89.337 83.2639 89.1166 82.5397 88.6758C81.82 88.2305 81.2645 87.6097 80.8731 86.8136C80.4863 86.0129 80.2929 85.0818 80.2929 84.0202C80.2929 82.9587 80.4863 82.0231 80.8731 81.2134C81.2645 80.3993 81.8087 79.765 82.5059 79.3107C83.2077 78.8519 84.0263 78.6225 84.9619 78.6225C85.5017 78.6225 86.0347 78.7125 86.561 78.8924C87.0873 79.0723 87.5663 79.3647 87.9981 79.7695C88.43 80.1699 88.7741 80.7006 89.0305 81.3619C89.2868 82.0231 89.415 82.8372 89.415 83.8043V84.479H81.4264V83.1026H87.7957C87.7957 82.5179 87.6788 81.9961 87.4449 81.5373C87.2155 81.0785 86.8871 80.7164 86.4598 80.451C86.037 80.1856 85.5377 80.0529 84.9619 80.0529C84.3277 80.0529 83.7789 80.2103 83.3156 80.5252C82.8568 80.8356 82.5037 81.2404 82.2563 81.7397C82.0089 82.239 81.8852 82.7743 81.8852 83.3455V84.2631C81.8852 85.0458 82.0202 85.7093 82.29 86.2536C82.5644 86.7933 82.9445 87.2049 83.4303 87.4883C83.9161 87.7672 84.4806 87.9066 85.1238 87.9066C85.5422 87.9066 85.92 87.8481 86.2574 87.7312C86.5992 87.6097 86.8939 87.4298 87.1412 87.1914C87.3886 86.9485 87.5798 86.6471 87.7148 86.2873L89.2531 86.7191C89.0912 87.2409 88.819 87.6997 88.4367 88.0955C88.0544 88.4869 87.5821 88.7927 87.0198 89.0131C86.4575 89.229 85.8256 89.337 85.1238 89.337ZM96.0205 93.2234C95.2513 93.2234 94.5901 93.1244 94.0368 92.9265C93.4836 92.7331 93.0225 92.4767 92.6537 92.1573C92.2893 91.8424 91.9992 91.5051 91.7833 91.1452L93.0518 90.2546C93.1957 90.4435 93.3779 90.6594 93.5983 90.9023C93.8187 91.1497 94.1201 91.3634 94.5024 91.5433C94.8892 91.7277 95.3953 91.82 96.0205 91.82C96.8572 91.82 97.5476 91.6175 98.0919 91.2127C98.6362 90.8079 98.9083 90.1737 98.9083 89.31V87.2049H98.7733C98.6564 87.3938 98.49 87.6277 98.2741 87.9066C98.0626 88.181 97.7568 88.4261 97.3564 88.642C96.9606 88.8535 96.4253 88.9592 95.7506 88.9592C94.914 88.9592 94.1628 88.7612 93.4971 88.3654C92.8358 87.9696 92.3118 87.3938 91.925 86.6381C91.5426 85.8825 91.3515 84.9648 91.3515 83.8853C91.3515 82.8237 91.5381 81.8994 91.9115 81.1122C92.2848 80.3205 92.8044 79.7088 93.4701 79.277C94.1358 78.8407 94.905 78.6225 95.7776 78.6225C96.4523 78.6225 96.9876 78.735 97.3834 78.9599C97.7838 79.1803 98.0896 79.4322 98.301 79.7156C98.517 79.9944 98.6834 80.2238 98.8003 80.4038H98.9623V78.7575H100.501V89.418C100.501 90.3086 100.298 91.0328 99.8934 91.5906C99.493 92.1528 98.9533 92.5644 98.2741 92.8253C97.5993 93.0907 96.8482 93.2234 96.0205 93.2234ZM95.9665 87.5288C96.6053 87.5288 97.145 87.3826 97.5858 87.0902C98.0267 86.7978 98.3618 86.3772 98.5912 85.8285C98.8206 85.2797 98.9353 84.623 98.9353 83.8583C98.9353 83.1116 98.8228 82.4527 98.5979 81.8814C98.373 81.3101 98.0402 80.8626 97.5993 80.5387C97.1585 80.2148 96.6143 80.0529 95.9665 80.0529C95.2918 80.0529 94.7296 80.2238 94.2797 80.5657C93.8344 80.9076 93.4993 81.3664 93.2744 81.9421C93.054 82.5179 92.9438 83.1566 92.9438 83.8583C92.9438 84.578 93.0563 85.2145 93.2812 85.7678C93.5106 86.3165 93.8479 86.7483 94.2932 87.0632C94.743 87.3736 95.3008 87.5288 95.9665 87.5288ZM103.415 89.1211V78.7575H105.008V89.1211H103.415ZM104.225 77.0302C103.915 77.0302 103.647 76.9245 103.422 76.7131C103.202 76.5017 103.092 76.2475 103.092 75.9506C103.092 75.6538 103.202 75.3996 103.422 75.1882C103.647 74.9768 103.915 74.8711 104.225 74.8711C104.535 74.8711 104.801 74.9768 105.021 75.1882C105.246 75.3996 105.359 75.6538 105.359 75.9506C105.359 76.2475 105.246 76.5017 105.021 76.7131C104.801 76.9245 104.535 77.0302 104.225 77.0302ZM112.134 89.337C111.163 89.337 110.326 89.1076 109.624 88.6488C108.923 88.19 108.383 87.558 108.005 86.7528C107.627 85.9477 107.438 85.0278 107.438 83.9933C107.438 82.9407 107.632 82.0118 108.019 81.2067C108.41 80.397 108.954 79.765 109.651 79.3107C110.353 78.8519 111.172 78.6225 112.107 78.6225C112.836 78.6225 113.493 78.7575 114.078 79.0273C114.662 79.2972 115.141 79.6751 115.515 80.1609C115.888 80.6467 116.12 81.2134 116.21 81.8612H114.617C114.496 81.3888 114.226 80.9705 113.808 80.6062C113.394 80.2373 112.836 80.0529 112.134 80.0529C111.514 80.0529 110.969 80.2148 110.502 80.5387C110.038 80.8581 109.676 81.3101 109.415 81.8949C109.159 82.4751 109.031 83.1566 109.031 83.9393C109.031 84.7399 109.157 85.4371 109.409 86.0309C109.665 86.6246 110.025 87.0857 110.488 87.4141C110.956 87.7424 111.505 87.9066 112.134 87.9066C112.548 87.9066 112.924 87.8346 113.261 87.6907C113.599 87.5468 113.884 87.3398 114.118 87.07C114.352 86.8001 114.518 86.4762 114.617 86.0984H116.21C116.12 86.7101 115.897 87.2611 115.542 87.7514C115.191 88.2372 114.725 88.6241 114.145 88.9119C113.569 89.1953 112.899 89.337 112.134 89.337ZM123.881 93.0075V78.7575H125.42V80.4038H125.608C125.725 80.2238 125.887 79.9944 126.094 79.7156C126.306 79.4322 126.607 79.1803 126.998 78.9599C127.394 78.735 127.93 78.6225 128.604 78.6225C129.477 78.6225 130.246 78.8407 130.912 79.277C131.577 79.7133 132.097 80.3318 132.47 81.1325C132.844 81.9331 133.03 82.8777 133.03 83.9663C133.03 85.0638 132.844 86.0152 132.47 86.8203C132.097 87.621 131.58 88.2417 130.919 88.6825C130.257 89.1188 129.495 89.337 128.631 89.337C127.965 89.337 127.432 89.2268 127.032 89.0064C126.632 88.7815 126.324 88.5273 126.108 88.244C125.892 87.9561 125.725 87.7177 125.608 87.5288H125.474V93.0075H123.881ZM125.447 83.9393C125.447 84.7219 125.561 85.4124 125.791 86.0107C126.02 86.6044 126.355 87.07 126.796 87.4073C127.237 87.7402 127.777 87.9066 128.415 87.9066C129.081 87.9066 129.637 87.7312 130.082 87.3803C130.532 87.025 130.869 86.5482 131.094 85.9499C131.323 85.3472 131.438 84.677 131.438 83.9393C131.438 83.2106 131.326 82.5539 131.101 81.9691C130.88 81.3799 130.545 80.9143 130.095 80.5724C129.65 80.2261 129.09 80.0529 128.415 80.0529C127.768 80.0529 127.223 80.2171 126.782 80.5455C126.342 80.8693 126.009 81.3236 125.784 81.9084C125.559 82.4886 125.447 83.1656 125.447 83.9393ZM138.509 89.364C137.852 89.364 137.256 89.2403 136.721 88.9929C136.186 88.741 135.761 88.3789 135.446 87.9066C135.131 87.4298 134.974 86.854 134.974 86.1793C134.974 85.5856 135.09 85.1043 135.324 84.7354C135.558 84.3621 135.871 84.0697 136.262 83.8583C136.654 83.6469 137.085 83.4895 137.558 83.386C138.035 83.2781 138.514 83.1926 138.995 83.1296C139.625 83.0487 140.135 82.9879 140.526 82.9474C140.922 82.9025 141.21 82.8282 141.39 82.7248C141.575 82.6213 141.667 82.4414 141.667 82.185V82.131C141.667 81.4653 141.485 80.948 141.12 80.5792C140.76 80.2103 140.214 80.0259 139.481 80.0259C138.72 80.0259 138.124 80.1924 137.693 80.5252C137.261 80.8581 136.957 81.2134 136.782 81.5913L135.27 81.0515C135.54 80.4218 135.9 79.9315 136.35 79.5806C136.804 79.2253 137.299 78.9779 137.834 78.8384C138.374 78.6945 138.905 78.6225 139.427 78.6225C139.76 78.6225 140.142 78.663 140.574 78.744C141.01 78.8204 141.431 78.9801 141.835 79.223C142.245 79.4659 142.584 79.8325 142.854 80.3228C143.124 80.8131 143.259 81.4698 143.259 82.293V89.1211H141.667V87.7177H141.586C141.478 87.9426 141.298 88.1832 141.046 88.4396C140.794 88.696 140.459 88.9142 140.041 89.0941C139.622 89.274 139.112 89.364 138.509 89.364ZM138.752 87.9336C139.382 87.9336 139.912 87.8099 140.344 87.5625C140.781 87.3151 141.109 86.9957 141.329 86.6044C141.554 86.2131 141.667 85.8015 141.667 85.3697V83.9123C141.599 83.9933 141.451 84.0675 141.221 84.1349C140.997 84.1979 140.736 84.2541 140.439 84.3036C140.146 84.3486 139.861 84.3891 139.582 84.4251C139.307 84.4566 139.085 84.4835 138.914 84.506C138.5 84.56 138.113 84.6477 137.753 84.7692C137.398 84.8861 137.11 85.0638 136.89 85.3022C136.674 85.5361 136.566 85.8555 136.566 86.2603C136.566 86.8136 136.771 87.2319 137.18 87.5153C137.594 87.7942 138.118 87.9336 138.752 87.9336ZM146.165 89.1211V78.7575H147.704V80.3228H147.812C148.001 79.81 148.342 79.3939 148.837 79.0746C149.332 78.7552 149.89 78.5955 150.511 78.5955C150.628 78.5955 150.774 78.5978 150.949 78.6023C151.125 78.6068 151.257 78.6135 151.347 78.6225V80.2418C151.293 80.2283 151.17 80.2081 150.976 80.1811C150.787 80.1496 150.587 80.1339 150.376 80.1339C149.872 80.1339 149.422 80.2396 149.026 80.451C148.635 80.6579 148.324 80.9458 148.095 81.3146C147.87 81.679 147.758 82.0951 147.758 82.5629V89.1211H146.165ZM158.391 78.7575V80.1069H153.021V78.7575H158.391ZM154.586 76.2745H156.178V86.1523C156.178 86.6022 156.243 86.9395 156.374 87.1644C156.509 87.3848 156.68 87.5333 156.887 87.6097C157.098 87.6817 157.321 87.7177 157.555 87.7177C157.73 87.7177 157.874 87.7087 157.986 87.6907C158.099 87.6682 158.189 87.6502 158.256 87.6367L158.58 89.0671C158.472 89.1076 158.322 89.1481 158.128 89.1886C157.935 89.2335 157.69 89.256 157.393 89.256C156.943 89.256 156.502 89.1593 156.07 88.9659C155.643 88.7725 155.288 88.4779 155.004 88.082C154.725 87.6862 154.586 87.1869 154.586 86.5842V76.2745ZM162.379 82.8867V89.1211H160.786V78.7575H162.325V80.3768H162.46C162.703 79.8505 163.072 79.4277 163.566 79.1083C164.061 78.7844 164.7 78.6225 165.483 78.6225C166.184 78.6225 166.798 78.7665 167.324 79.0543C167.851 79.3377 168.26 79.7695 168.552 80.3498C168.845 80.9255 168.991 81.6542 168.991 82.5359V89.1211H167.399V82.6438C167.399 81.8297 167.187 81.1954 166.764 80.7411C166.342 80.2823 165.761 80.0529 165.024 80.0529C164.515 80.0529 164.061 80.1631 163.661 80.3835C163.265 80.6039 162.952 80.9255 162.723 81.3484C162.494 81.7712 162.379 82.284 162.379 82.8867ZM176.246 89.337C175.247 89.337 174.386 89.1166 173.662 88.6758C172.942 88.2305 172.387 87.6097 171.995 86.8136C171.608 86.0129 171.415 85.0818 171.415 84.0202C171.415 82.9587 171.608 82.0231 171.995 81.2134C172.387 80.3993 172.931 79.765 173.628 79.3107C174.33 78.8519 175.148 78.6225 176.084 78.6225C176.624 78.6225 177.157 78.7125 177.683 78.8924C178.209 79.0723 178.688 79.3647 179.12 79.7695C179.552 80.1699 179.896 80.7006 180.153 81.3619C180.409 82.0231 180.537 82.8372 180.537 83.8043V84.479H172.548V83.1026H178.918C178.918 82.5179 178.801 81.9961 178.567 81.5373C178.338 81.0785 178.009 80.7164 177.582 80.451C177.159 80.1856 176.66 80.0529 176.084 80.0529C175.45 80.0529 174.901 80.2103 174.438 80.5252C173.979 80.8356 173.626 81.2404 173.378 81.7397C173.131 82.239 173.007 82.7743 173.007 83.3455V84.2631C173.007 85.0458 173.142 85.7093 173.412 86.2536C173.686 86.7933 174.067 87.2049 174.552 87.4883C175.038 87.7672 175.603 87.9066 176.246 87.9066C176.664 87.9066 177.042 87.8481 177.379 87.7312C177.721 87.6097 178.016 87.4298 178.263 87.1914C178.511 86.9485 178.702 86.6471 178.837 86.2873L180.375 86.7191C180.213 87.2409 179.941 87.6997 179.559 88.0955C179.176 88.4869 178.704 88.7927 178.142 89.0131C177.58 89.229 176.948 89.337 176.246 89.337ZM182.959 89.1211V78.7575H184.498V80.3228H184.606C184.795 79.81 185.136 79.3939 185.631 79.0746C186.126 78.7552 186.684 78.5955 187.305 78.5955C187.421 78.5955 187.568 78.5978 187.743 78.6023C187.919 78.6068 188.051 78.6135 188.141 78.6225V80.2418C188.087 80.2283 187.963 80.2081 187.77 80.1811C187.581 80.1496 187.381 80.1339 187.17 80.1339C186.666 80.1339 186.216 80.2396 185.82 80.451C185.429 80.6579 185.118 80.9458 184.889 81.3146C184.664 81.679 184.552 82.0951 184.552 82.5629V89.1211H182.959ZM197.37 81.0785L195.939 81.4833C195.849 81.2449 195.717 81.0133 195.541 80.7884C195.37 80.5589 195.136 80.37 194.839 80.2216C194.543 80.0732 194.162 79.9989 193.699 79.9989C193.065 79.9989 192.536 80.1451 192.114 80.4375C191.695 80.7254 191.486 81.092 191.486 81.5373C191.486 81.9331 191.63 82.2457 191.918 82.4751C192.206 82.7045 192.656 82.8957 193.267 83.0487L194.806 83.4265C195.732 83.6514 196.423 83.9955 196.877 84.4588C197.331 84.9176 197.559 85.5091 197.559 86.2333C197.559 86.8271 197.388 87.3578 197.046 87.8256C196.708 88.2934 196.236 88.6623 195.629 88.9322C195.022 89.2021 194.315 89.337 193.51 89.337C192.453 89.337 191.578 89.1076 190.886 88.6488C190.193 88.19 189.754 87.5198 189.57 86.6381L191.081 86.2603C191.225 86.8181 191.497 87.2364 191.898 87.5153C192.302 87.7942 192.831 87.9336 193.483 87.9336C194.225 87.9336 194.815 87.7762 195.251 87.4613C195.692 87.1419 195.912 86.7596 195.912 86.3143C195.912 85.9544 195.786 85.6531 195.534 85.4102C195.282 85.1628 194.896 84.9783 194.374 84.8569L192.647 84.4521C191.697 84.2272 191 83.8786 190.555 83.4062C190.114 82.9295 189.894 82.3335 189.894 81.6183C189.894 81.0335 190.058 80.5162 190.386 80.0664C190.719 79.6166 191.171 79.2635 191.742 79.0071C192.318 78.7507 192.97 78.6225 193.699 78.6225C194.725 78.6225 195.53 78.8474 196.115 79.2972C196.704 79.747 197.122 80.3408 197.37 81.0785ZM201.548 82.8867V89.1211H199.955V75.3029H201.548V80.3768H201.683C201.926 79.8415 202.29 79.4164 202.776 79.1016C203.266 78.7822 203.918 78.6225 204.732 78.6225C205.439 78.6225 206.057 78.7642 206.588 79.0476C207.119 79.3265 207.53 79.756 207.823 80.3363C208.119 80.912 208.268 81.6452 208.268 82.5359V89.1211H206.676V82.6438C206.676 81.8207 206.462 81.1842 206.035 80.7344C205.612 80.2801 205.025 80.0529 204.274 80.0529C203.752 80.0529 203.284 80.1631 202.87 80.3835C202.461 80.6039 202.137 80.9255 201.899 81.3484C201.665 81.7712 201.548 82.284 201.548 82.8867ZM211.181 89.1211V78.7575H212.773V89.1211H211.181ZM211.991 77.0302C211.68 77.0302 211.413 76.9245 211.188 76.7131C210.967 76.5017 210.857 76.2475 210.857 75.9506C210.857 75.6538 210.967 75.3996 211.188 75.1882C211.413 74.9768 211.68 74.8711 211.991 74.8711C212.301 74.8711 212.566 74.9768 212.787 75.1882C213.012 75.3996 213.124 75.6538 213.124 75.9506C213.124 76.2475 213.012 76.5017 212.787 76.7131C212.566 76.9245 212.301 77.0302 211.991 77.0302ZM215.69 93.0075V78.7575H217.228V80.4038H217.417C217.534 80.2238 217.696 79.9944 217.903 79.7156C218.114 79.4322 218.416 79.1803 218.807 78.9599C219.203 78.735 219.738 78.6225 220.413 78.6225C221.285 78.6225 222.055 78.8407 222.72 79.277C223.386 79.7133 223.906 80.3318 224.279 81.1325C224.652 81.9331 224.839 82.8777 224.839 83.9663C224.839 85.0638 224.652 86.0152 224.279 86.8203C223.906 87.621 223.388 88.2417 222.727 88.6825C222.066 89.1188 221.303 89.337 220.44 89.337C219.774 89.337 219.241 89.2268 218.841 89.0064C218.44 88.7815 218.132 88.5273 217.916 88.244C217.7 87.9561 217.534 87.7177 217.417 87.5288H217.282V93.0075H215.69ZM217.255 83.9393C217.255 84.7219 217.37 85.4124 217.599 86.0107C217.829 86.6044 218.164 87.07 218.605 87.4073C219.045 87.7402 219.585 87.9066 220.224 87.9066C220.89 87.9066 221.445 87.7312 221.89 87.3803C222.34 87.025 222.678 86.5482 222.903 85.9499C223.132 85.3472 223.247 84.677 223.247 83.9393C223.247 83.2106 223.134 82.5539 222.909 81.9691C222.689 81.3799 222.354 80.9143 221.904 80.5724C221.459 80.2261 220.899 80.0529 220.224 80.0529C219.576 80.0529 219.032 80.2171 218.591 80.5455C218.15 80.8693 217.817 81.3236 217.593 81.9084C217.368 82.4886 217.255 83.1656 217.255 83.9393ZM234.609 81.0785L233.178 81.4833C233.088 81.2449 232.956 81.0133 232.78 80.7884C232.609 80.5589 232.376 80.37 232.079 80.2216C231.782 80.0732 231.402 79.9989 230.938 79.9989C230.304 79.9989 229.776 80.1451 229.353 80.4375C228.934 80.7254 228.725 81.092 228.725 81.5373C228.725 81.9331 228.869 82.2457 229.157 82.4751C229.445 82.7045 229.895 82.8957 230.507 83.0487L232.045 83.4265C232.972 83.6514 233.662 83.9955 234.116 84.4588C234.571 84.9176 234.798 85.5091 234.798 86.2333C234.798 86.8271 234.627 87.3578 234.285 87.8256C233.948 88.2934 233.475 88.6623 232.868 88.9322C232.261 89.2021 231.555 89.337 230.749 89.337C229.692 89.337 228.818 89.1076 228.125 88.6488C227.432 88.19 226.994 87.5198 226.809 86.6381L228.32 86.2603C228.464 86.8181 228.737 87.2364 229.137 87.5153C229.542 87.7942 230.07 87.9336 230.722 87.9336C231.465 87.9336 232.054 87.7762 232.49 87.4613C232.931 87.1419 233.151 86.7596 233.151 86.3143C233.151 85.9544 233.026 85.6531 232.774 85.4102C232.522 85.1628 232.135 84.9783 231.613 84.8569L229.886 84.4521C228.937 84.2272 228.24 83.8786 227.794 83.4062C227.353 82.9295 227.133 82.3335 227.133 81.6183C227.133 81.0335 227.297 80.5162 227.626 80.0664C227.958 79.6166 228.41 79.2635 228.982 79.0071C229.557 78.7507 230.21 78.6225 230.938 78.6225C231.964 78.6225 232.769 78.8474 233.354 79.2972C233.943 79.747 234.361 80.3408 234.609 81.0785ZM246.884 89.337C245.885 89.337 245.024 89.1166 244.299 88.6758C243.58 88.2305 243.024 87.6097 242.633 86.8136C242.246 86.0129 242.053 85.0818 242.053 84.0202C242.053 82.9587 242.246 82.0231 242.633 81.2134C243.024 80.3993 243.569 79.765 244.266 79.3107C244.967 78.8519 245.786 78.6225 246.722 78.6225C247.261 78.6225 247.794 78.7125 248.321 78.8924C248.847 79.0723 249.326 79.3647 249.758 79.7695C250.19 80.1699 250.534 80.7006 250.79 81.3619C251.047 82.0231 251.175 82.8372 251.175 83.8043V84.479H243.186V83.1026H249.555C249.555 82.5179 249.439 81.9961 249.205 81.5373C248.975 81.0785 248.647 80.7164 248.22 80.451C247.797 80.1856 247.297 80.0529 246.722 80.0529C246.087 80.0529 245.539 80.2103 245.075 80.5252C244.617 80.8356 244.263 81.2404 244.016 81.7397C243.769 82.239 243.645 82.7743 243.645 83.3455V84.2631C243.645 85.0458 243.78 85.7093 244.05 86.2536C244.324 86.7933 244.704 87.2049 245.19 87.4883C245.676 87.7672 246.24 87.9066 246.884 87.9066C247.302 87.9066 247.68 87.8481 248.017 87.7312C248.359 87.6097 248.654 87.4298 248.901 87.1914C249.148 86.9485 249.34 86.6471 249.475 86.2873L251.013 86.7191C250.851 87.2409 250.579 87.6997 250.196 88.0955C249.814 88.4869 249.342 88.7927 248.78 89.0131C248.217 89.229 247.585 89.337 246.884 89.337ZM255.189 82.8867V89.1211H253.597V78.7575H255.135V80.3768H255.27C255.513 79.8505 255.882 79.4277 256.377 79.1083C256.872 78.7844 257.51 78.6225 258.293 78.6225C258.995 78.6225 259.609 78.7665 260.135 79.0543C260.661 79.3377 261.071 79.7695 261.363 80.3498C261.655 80.9255 261.802 81.6542 261.802 82.5359V89.1211H260.209V82.6438C260.209 81.8297 259.998 81.1954 259.575 80.7411C259.152 80.2823 258.572 80.0529 257.834 80.0529C257.326 80.0529 256.872 80.1631 256.471 80.3835C256.075 80.6039 255.763 80.9255 255.533 81.3484C255.304 81.7712 255.189 82.284 255.189 82.8867ZM272.052 81.0785L270.622 81.4833C270.532 81.2449 270.399 81.0133 270.224 80.7884C270.053 80.5589 269.819 80.37 269.522 80.2216C269.225 80.0732 268.845 79.9989 268.382 79.9989C267.748 79.9989 267.219 80.1451 266.796 80.4375C266.378 80.7254 266.169 81.092 266.169 81.5373C266.169 81.9331 266.313 82.2457 266.6 82.4751C266.888 82.7045 267.338 82.8957 267.95 83.0487L269.488 83.4265C270.415 83.6514 271.105 83.9955 271.56 84.4588C272.014 84.9176 272.241 85.5091 272.241 86.2333C272.241 86.8271 272.07 87.3578 271.728 87.8256C271.391 88.2934 270.919 88.6623 270.311 88.9322C269.704 89.2021 268.998 89.337 268.193 89.337C267.136 89.337 266.261 89.1076 265.568 88.6488C264.875 88.19 264.437 87.5198 264.252 86.6381L265.764 86.2603C265.908 86.8181 266.18 87.2364 266.58 87.5153C266.985 87.7942 267.514 87.9336 268.166 87.9336C268.908 87.9336 269.497 87.7762 269.934 87.4613C270.374 87.1419 270.595 86.7596 270.595 86.3143C270.595 85.9544 270.469 85.6531 270.217 85.4102C269.965 85.1628 269.578 84.9783 269.056 84.8569L267.329 84.4521C266.38 84.2272 265.683 83.8786 265.238 83.4062C264.797 82.9295 264.576 82.3335 264.576 81.6183C264.576 81.0335 264.741 80.5162 265.069 80.0664C265.402 79.6166 265.854 79.2635 266.425 79.0071C267.001 78.7507 267.653 78.6225 268.382 78.6225C269.407 78.6225 270.212 78.8474 270.797 79.2972C271.386 79.747 271.805 80.3408 272.052 81.0785ZM281.169 84.8839V78.7575H282.762V89.1211H281.169V87.3668H281.061C280.818 87.8931 280.441 88.3407 279.928 88.7095C279.415 89.0739 278.767 89.256 277.985 89.256C277.337 89.256 276.761 89.1143 276.257 88.831C275.754 88.5431 275.358 88.1113 275.07 87.5355C274.782 86.9553 274.638 86.2243 274.638 85.3427V78.7575H276.23V85.2347C276.23 85.9904 276.442 86.5932 276.865 87.043C277.292 87.4928 277.836 87.7177 278.497 87.7177C278.893 87.7177 279.296 87.6165 279.705 87.4141C280.119 87.2116 280.465 86.9013 280.744 86.483C281.028 86.0646 281.169 85.5316 281.169 84.8839ZM285.678 89.1211V78.7575H287.216V80.3228H287.324C287.513 79.81 287.855 79.3939 288.35 79.0746C288.845 78.7552 289.403 78.5955 290.023 78.5955C290.14 78.5955 290.286 78.5978 290.462 78.6023C290.637 78.6068 290.77 78.6135 290.86 78.6225V80.2418C290.806 80.2283 290.682 80.2081 290.489 80.1811C290.3 80.1496 290.1 80.1339 289.888 80.1339C289.385 80.1339 288.935 80.2396 288.539 80.451C288.148 80.6579 287.837 80.9458 287.608 81.3146C287.383 81.679 287.27 82.0951 287.27 82.5629V89.1211H285.678ZM296.777 89.337C295.779 89.337 294.917 89.1166 294.193 88.6758C293.473 88.2305 292.918 87.6097 292.526 86.8136C292.14 86.0129 291.946 85.0818 291.946 84.0202C291.946 82.9587 292.14 82.0231 292.526 81.2134C292.918 80.3993 293.462 79.765 294.159 79.3107C294.861 78.8519 295.68 78.6225 296.615 78.6225C297.155 78.6225 297.688 78.7125 298.214 78.8924C298.741 79.0723 299.22 79.3647 299.651 79.7695C300.083 80.1699 300.427 80.7006 300.684 81.3619C300.94 82.0231 301.068 82.8372 301.068 83.8043V84.479H293.08V83.1026H299.449C299.449 82.5179 299.332 81.9961 299.098 81.5373C298.869 81.0785 298.54 80.7164 298.113 80.451C297.69 80.1856 297.191 80.0529 296.615 80.0529C295.981 80.0529 295.432 80.2103 294.969 80.5252C294.51 80.8356 294.157 81.2404 293.91 81.7397C293.662 82.239 293.539 82.7743 293.539 83.3455V84.2631C293.539 85.0458 293.673 85.7093 293.943 86.2536C294.218 86.7933 294.598 87.2049 295.084 87.4883C295.569 87.7672 296.134 87.9066 296.777 87.9066C297.195 87.9066 297.573 87.8481 297.911 87.7312C298.253 87.6097 298.547 87.4298 298.795 87.1914C299.042 86.9485 299.233 86.6471 299.368 86.2873L300.906 86.7191C300.744 87.2409 300.472 87.6997 300.09 88.0955C299.708 88.4869 299.235 88.7927 298.673 89.0131C298.111 89.229 297.479 89.337 296.777 89.337ZM5.96449 107.757V109.107H0.59375V107.757H5.96449ZM2.15909 105.275H3.75142V115.152C3.75142 115.602 3.81664 115.94 3.94709 116.164C4.08203 116.385 4.25296 116.533 4.45987 116.61C4.67128 116.682 4.89394 116.718 5.12784 116.718C5.30327 116.718 5.44721 116.709 5.55966 116.691C5.67211 116.668 5.76207 116.65 5.82955 116.637L6.15341 118.067C6.04545 118.108 5.89477 118.148 5.70135 118.189C5.50793 118.234 5.26278 118.256 4.96591 118.256C4.5161 118.256 4.07528 118.159 3.64347 117.966C3.21615 117.772 2.8608 117.478 2.57741 117.082C2.29853 116.686 2.15909 116.187 2.15909 115.584V105.275ZM10.1747 111.887V118.121H8.58239V104.303H10.1747V109.377H10.3097C10.5526 108.842 10.9169 108.416 11.4027 108.102C11.893 107.782 12.5452 107.623 13.3594 107.623C14.0656 107.623 14.6841 107.764 15.2148 108.048C15.7456 108.326 16.1572 108.756 16.4496 109.336C16.7464 109.912 16.8949 110.645 16.8949 111.536V118.121H15.3026V111.644C15.3026 110.821 15.0889 110.184 14.6616 109.734C14.2388 109.28 13.6518 109.053 12.9006 109.053C12.3788 109.053 11.911 109.163 11.4972 109.384C11.0878 109.604 10.764 109.926 10.5256 110.348C10.2917 110.771 10.1747 111.284 10.1747 111.887ZM22.8577 118.364C22.201 118.364 21.605 118.24 21.0697 117.993C20.5344 117.741 20.1093 117.379 19.7945 116.907C19.4796 116.43 19.3222 115.854 19.3222 115.179C19.3222 114.586 19.4391 114.104 19.673 113.735C19.9069 113.362 20.2195 113.07 20.6109 112.858C21.0022 112.647 21.434 112.489 21.9063 112.386C22.3831 112.278 22.8622 112.193 23.3435 112.13C23.9732 112.049 24.4838 111.988 24.8751 111.947C25.2709 111.902 25.5588 111.828 25.7387 111.725C25.9231 111.621 26.0154 111.441 26.0154 111.185V111.131C26.0154 110.465 25.8332 109.948 25.4688 109.579C25.109 109.21 24.5625 109.026 23.8293 109.026C23.0691 109.026 22.4731 109.192 22.0413 109.525C21.6095 109.858 21.3058 110.213 21.1304 110.591L19.6191 110.051C19.8889 109.422 20.2488 108.931 20.6986 108.581C21.1529 108.225 21.6477 107.978 22.183 107.838C22.7227 107.694 23.2535 107.623 23.7753 107.623C24.1082 107.623 24.4905 107.663 24.9223 107.744C25.3586 107.82 25.7792 107.98 26.184 108.223C26.5934 108.466 26.933 108.833 27.2029 109.323C27.4727 109.813 27.6077 110.47 27.6077 111.293V118.121H26.0154V116.718H25.9344C25.8264 116.943 25.6465 117.183 25.3946 117.44C25.1427 117.696 24.8076 117.914 24.3893 118.094C23.971 118.274 23.4604 118.364 22.8577 118.364ZM23.1006 116.934C23.7303 116.934 24.2611 116.81 24.6929 116.562C25.1292 116.315 25.4576 115.996 25.678 115.604C25.9029 115.213 26.0154 114.801 26.0154 114.37V112.912C25.9479 112.993 25.7994 113.067 25.57 113.135C25.3451 113.198 25.0843 113.254 24.7874 113.304C24.495 113.349 24.2094 113.389 23.9305 113.425C23.6561 113.457 23.4334 113.484 23.2625 113.506C22.8487 113.56 22.4619 113.648 22.102 113.769C21.7467 113.886 21.4588 114.064 21.2384 114.302C21.0225 114.536 20.9145 114.855 20.9145 115.26C20.9145 115.814 21.1192 116.232 21.5285 116.515C21.9423 116.794 22.4664 116.934 23.1006 116.934ZM35.0211 107.757V109.107H29.6504V107.757H35.0211ZM31.2157 105.275H32.8081V115.152C32.8081 115.602 32.8733 115.94 33.0037 116.164C33.1387 116.385 33.3096 116.533 33.5165 116.61C33.7279 116.682 33.9506 116.718 34.1845 116.718C34.3599 116.718 34.5038 116.709 34.6163 116.691C34.7288 116.668 34.8187 116.65 34.8862 116.637L35.2101 118.067C35.1021 118.108 34.9514 118.148 34.758 118.189C34.5646 118.234 34.3194 118.256 34.0226 118.256C33.5727 118.256 33.1319 118.159 32.7001 117.966C32.2728 117.772 31.9174 117.478 31.6341 117.082C31.3552 116.686 31.2157 116.187 31.2157 115.584V105.275ZM43.7857 122.007C43.5158 122.007 43.2752 121.985 43.0637 121.94C42.8523 121.9 42.7061 121.859 42.6252 121.819L43.03 120.415C43.4168 120.514 43.7587 120.55 44.0556 120.523C44.3525 120.496 44.6156 120.363 44.845 120.125C45.0789 119.891 45.2926 119.511 45.486 118.985L45.7828 118.175L41.9505 107.757H43.6777L46.5385 116.016H46.6465L49.5073 107.757H51.2346L46.8354 119.632C46.6375 120.168 46.3923 120.611 46.1 120.962C45.8076 121.317 45.468 121.58 45.0811 121.751C44.6988 121.922 44.267 122.007 43.7857 122.007ZM57.1754 118.337C56.2398 118.337 55.4189 118.114 54.7127 117.669C54.011 117.224 53.4622 116.601 53.0664 115.8C52.6751 114.999 52.4794 114.064 52.4794 112.993C52.4794 111.914 52.6751 110.971 53.0664 110.166C53.4622 109.361 54.011 108.736 54.7127 108.29C55.4189 107.845 56.2398 107.623 57.1754 107.623C58.111 107.623 58.9297 107.845 59.6314 108.29C60.3376 108.736 60.8864 109.361 61.2777 110.166C61.6735 110.971 61.8714 111.914 61.8714 112.993C61.8714 114.064 61.6735 114.999 61.2777 115.8C60.8864 116.601 60.3376 117.224 59.6314 117.669C58.9297 118.114 58.111 118.337 57.1754 118.337ZM57.1754 116.907C57.8861 116.907 58.4709 116.724 58.9297 116.36C59.3885 115.996 59.7281 115.517 59.9485 114.923C60.1689 114.329 60.2791 113.686 60.2791 112.993C60.2791 112.301 60.1689 111.655 59.9485 111.057C59.7281 110.459 59.3885 109.975 58.9297 109.606C58.4709 109.237 57.8861 109.053 57.1754 109.053C56.4647 109.053 55.88 109.237 55.4212 109.606C54.9624 109.975 54.6228 110.459 54.4023 111.057C54.1819 111.655 54.0717 112.301 54.0717 112.993C54.0717 113.686 54.1819 114.329 54.4023 114.923C54.6228 115.517 54.9624 115.996 55.4212 116.36C55.88 116.724 56.4647 116.907 57.1754 116.907ZM70.8334 113.884V107.757H72.4257V118.121H70.8334V116.367H70.7254C70.4825 116.893 70.1047 117.341 69.5919 117.71C69.0791 118.074 68.4314 118.256 67.6487 118.256C67.001 118.256 66.4252 118.114 65.9214 117.831C65.4176 117.543 65.0218 117.111 64.7339 116.536C64.4461 115.955 64.3021 115.224 64.3021 114.343V107.757H65.8944V114.235C65.8944 114.99 66.1059 115.593 66.5287 116.043C66.956 116.493 67.5003 116.718 68.1615 116.718C68.5573 116.718 68.9599 116.616 69.3692 116.414C69.7831 116.212 70.1294 115.901 70.4083 115.483C70.6917 115.065 70.8334 114.532 70.8334 113.884ZM75.3422 118.121V107.757H76.8805V109.323H76.9885C77.1774 108.81 77.5192 108.394 78.014 108.075C78.5088 107.755 79.0666 107.596 79.6873 107.596C79.8043 107.596 79.9505 107.598 80.1259 107.602C80.3013 107.607 80.434 107.614 80.524 107.623V109.242C80.47 109.228 80.3463 109.208 80.1529 109.181C79.964 109.15 79.7638 109.134 79.5524 109.134C79.0486 109.134 78.5988 109.24 78.2029 109.451C77.8116 109.658 77.5012 109.946 77.2718 110.315C77.0469 110.679 76.9345 111.095 76.9345 111.563V118.121H75.3422ZM87.7552 118.121V107.757H89.2936V109.377H89.4285C89.6444 108.824 89.993 108.394 90.4743 108.088C90.9556 107.778 91.5336 107.623 92.2084 107.623C92.8921 107.623 93.4611 107.778 93.9154 108.088C94.3742 108.394 94.7318 108.824 94.9882 109.377H95.0961C95.3615 108.842 95.7596 108.416 96.2904 108.102C96.8212 107.782 97.4577 107.623 98.1998 107.623C99.1265 107.623 99.8844 107.913 100.474 108.493C101.063 109.069 101.358 109.966 101.358 111.185V118.121H99.7652V111.185C99.7652 110.42 99.556 109.874 99.1377 109.545C98.7194 109.217 98.2268 109.053 97.6601 109.053C96.9314 109.053 96.3669 109.273 95.9665 109.714C95.5662 110.15 95.366 110.704 95.366 111.374V118.121H93.7467V111.023C93.7467 110.434 93.5555 109.959 93.1732 109.599C92.7909 109.235 92.2983 109.053 91.6956 109.053C91.2818 109.053 90.8949 109.163 90.5351 109.384C90.1797 109.604 89.8918 109.91 89.6714 110.301C89.4555 110.688 89.3476 111.136 89.3476 111.644V118.121H87.7552ZM110.8 113.884V107.757H112.392V118.121H110.8V116.367H110.692C110.449 116.893 110.071 117.341 109.559 117.71C109.046 118.074 108.398 118.256 107.616 118.256C106.968 118.256 106.392 118.114 105.888 117.831C105.384 117.543 104.989 117.111 104.701 116.536C104.413 115.955 104.269 115.224 104.269 114.343V107.757H105.861V114.235C105.861 114.99 106.073 115.593 106.495 116.043C106.923 116.493 107.467 116.718 108.128 116.718C108.524 116.718 108.927 116.616 109.336 116.414C109.75 116.212 110.096 115.901 110.375 115.483C110.658 115.065 110.8 114.532 110.8 113.884ZM122.65 110.078L121.219 110.483C121.129 110.245 120.997 110.013 120.821 109.788C120.65 109.559 120.417 109.37 120.12 109.222C119.823 109.073 119.443 108.999 118.979 108.999C118.345 108.999 117.817 109.145 117.394 109.438C116.975 109.725 116.766 110.092 116.766 110.537C116.766 110.933 116.91 111.246 117.198 111.475C117.486 111.705 117.936 111.896 118.548 112.049L120.086 112.426C121.013 112.651 121.703 112.996 122.157 113.459C122.612 113.918 122.839 114.509 122.839 115.233C122.839 115.827 122.668 116.358 122.326 116.826C121.989 117.293 121.516 117.662 120.909 117.932C120.302 118.202 119.596 118.337 118.79 118.337C117.733 118.337 116.859 118.108 116.166 117.649C115.473 117.19 115.035 116.52 114.85 115.638L116.362 115.26C116.505 115.818 116.778 116.236 117.178 116.515C117.583 116.794 118.111 116.934 118.763 116.934C119.506 116.934 120.095 116.776 120.531 116.461C120.972 116.142 121.192 115.76 121.192 115.314C121.192 114.954 121.067 114.653 120.815 114.41C120.563 114.163 120.176 113.978 119.654 113.857L117.927 113.452C116.978 113.227 116.281 112.879 115.835 112.406C115.394 111.929 115.174 111.333 115.174 110.618C115.174 110.033 115.338 109.516 115.667 109.066C115.999 108.617 116.451 108.263 117.023 108.007C117.598 107.751 118.251 107.623 118.979 107.623C120.005 107.623 120.81 107.847 121.395 108.297C121.984 108.747 122.402 109.341 122.65 110.078ZM125.236 118.121V107.757H126.828V118.121H125.236ZM126.045 106.03C125.735 106.03 125.467 105.924 125.242 105.713C125.022 105.502 124.912 105.248 124.912 104.951C124.912 104.654 125.022 104.4 125.242 104.188C125.467 103.977 125.735 103.871 126.045 103.871C126.356 103.871 126.621 103.977 126.842 104.188C127.066 104.4 127.179 104.654 127.179 104.951C127.179 105.248 127.066 105.502 126.842 105.713C126.621 105.924 126.356 106.03 126.045 106.03ZM133.955 118.337C132.983 118.337 132.146 118.108 131.445 117.649C130.743 117.19 130.203 116.558 129.825 115.753C129.448 114.948 129.259 114.028 129.259 112.993C129.259 111.941 129.452 111.012 129.839 110.207C130.23 109.397 130.775 108.765 131.472 108.311C132.173 107.852 132.992 107.623 133.928 107.623C134.656 107.623 135.313 107.757 135.898 108.027C136.483 108.297 136.962 108.675 137.335 109.161C137.708 109.647 137.94 110.213 138.03 110.861H136.438C136.316 110.389 136.046 109.971 135.628 109.606C135.214 109.237 134.656 109.053 133.955 109.053C133.334 109.053 132.79 109.215 132.322 109.539C131.859 109.858 131.497 110.31 131.236 110.895C130.979 111.475 130.851 112.157 130.851 112.939C130.851 113.74 130.977 114.437 131.229 115.031C131.485 115.625 131.845 116.086 132.308 116.414C132.776 116.742 133.325 116.907 133.955 116.907C134.369 116.907 134.744 116.835 135.081 116.691C135.419 116.547 135.704 116.34 135.938 116.07C136.172 115.8 136.339 115.476 136.438 115.098H138.03C137.94 115.71 137.717 116.261 137.362 116.751C137.011 117.237 136.546 117.624 135.965 117.912C135.39 118.195 134.719 118.337 133.955 118.337ZM145.702 118.121V107.757H147.294V118.121H145.702ZM146.511 106.03C146.201 106.03 145.933 105.924 145.708 105.713C145.488 105.502 145.378 105.248 145.378 104.951C145.378 104.654 145.488 104.4 145.708 104.188C145.933 103.977 146.201 103.871 146.511 103.871C146.822 103.871 147.087 103.977 147.307 104.188C147.532 104.4 147.645 104.654 147.645 104.951C147.645 105.248 147.532 105.502 147.307 105.713C147.087 105.924 146.822 106.03 146.511 106.03ZM157.551 110.078L156.121 110.483C156.031 110.245 155.898 110.013 155.723 109.788C155.552 109.559 155.318 109.37 155.021 109.222C154.724 109.073 154.344 108.999 153.881 108.999C153.247 108.999 152.718 109.145 152.295 109.438C151.877 109.725 151.668 110.092 151.668 110.537C151.668 110.933 151.812 111.246 152.1 111.475C152.387 111.705 152.837 111.896 153.449 112.049L154.987 112.426C155.914 112.651 156.604 112.996 157.059 113.459C157.513 113.918 157.74 114.509 157.74 115.233C157.74 115.827 157.569 116.358 157.227 116.826C156.89 117.293 156.418 117.662 155.81 117.932C155.203 118.202 154.497 118.337 153.692 118.337C152.635 118.337 151.76 118.108 151.067 117.649C150.374 117.19 149.936 116.52 149.752 115.638L151.263 115.26C151.407 115.818 151.679 116.236 152.079 116.515C152.484 116.794 153.013 116.934 153.665 116.934C154.407 116.934 154.996 116.776 155.433 116.461C155.873 116.142 156.094 115.76 156.094 115.314C156.094 114.954 155.968 114.653 155.716 114.41C155.464 114.163 155.077 113.978 154.555 113.857L152.828 113.452C151.879 113.227 151.182 112.879 150.737 112.406C150.296 111.929 150.075 111.333 150.075 110.618C150.075 110.033 150.24 109.516 150.568 109.066C150.901 108.617 151.353 108.263 151.924 108.007C152.5 107.751 153.152 107.623 153.881 107.623C154.906 107.623 155.711 107.847 156.296 108.297C156.886 108.747 157.304 109.341 157.551 110.078ZM172.822 110.078L171.391 110.483C171.301 110.245 171.169 110.013 170.993 109.788C170.822 109.559 170.588 109.37 170.292 109.222C169.995 109.073 169.615 108.999 169.151 108.999C168.517 108.999 167.989 109.145 167.566 109.438C167.147 109.725 166.938 110.092 166.938 110.537C166.938 110.933 167.082 111.246 167.37 111.475C167.658 111.705 168.108 111.896 168.719 112.049L170.258 112.426C171.184 112.651 171.875 112.996 172.329 113.459C172.783 113.918 173.011 114.509 173.011 115.233C173.011 115.827 172.84 116.358 172.498 116.826C172.161 117.293 171.688 117.662 171.081 117.932C170.474 118.202 169.768 118.337 168.962 118.337C167.905 118.337 167.03 118.108 166.338 117.649C165.645 117.19 165.206 116.52 165.022 115.638L166.533 115.26C166.677 115.818 166.949 116.236 167.35 116.515C167.755 116.794 168.283 116.934 168.935 116.934C169.678 116.934 170.267 116.776 170.703 116.461C171.144 116.142 171.364 115.76 171.364 115.314C171.364 114.954 171.238 114.653 170.987 114.41C170.735 114.163 170.348 113.978 169.826 113.857L168.099 113.452C167.15 113.227 166.452 112.879 166.007 112.406C165.566 111.929 165.346 111.333 165.346 110.618C165.346 110.033 165.51 109.516 165.838 109.066C166.171 108.617 166.623 108.263 167.195 108.007C167.77 107.751 168.423 107.623 169.151 107.623C170.177 107.623 170.982 107.847 171.567 108.297C172.156 108.747 172.574 109.341 172.822 110.078ZM179.915 107.757V109.107H174.544V107.757H179.915ZM176.109 105.275H177.702V115.152C177.702 115.602 177.767 115.94 177.897 116.164C178.032 116.385 178.203 116.533 178.41 116.61C178.621 116.682 178.844 116.718 179.078 116.718C179.253 116.718 179.397 116.709 179.51 116.691C179.622 116.668 179.712 116.65 179.78 116.637L180.104 118.067C179.996 118.108 179.845 118.148 179.652 118.189C179.458 118.234 179.213 118.256 178.916 118.256C178.466 118.256 178.025 118.159 177.594 117.966C177.166 117.772 176.811 117.478 176.528 117.082C176.249 116.686 176.109 116.187 176.109 115.584V105.275ZM182.31 118.121V107.757H183.848V109.323H183.956C184.145 108.81 184.487 108.394 184.982 108.075C185.477 107.755 186.034 107.596 186.655 107.596C186.772 107.596 186.918 107.598 187.094 107.602C187.269 107.607 187.402 107.614 187.492 107.623V109.242C187.438 109.228 187.314 109.208 187.121 109.181C186.932 109.15 186.732 109.134 186.52 109.134C186.016 109.134 185.567 109.24 185.171 109.451C184.779 109.658 184.469 109.946 184.24 110.315C184.015 110.679 183.902 111.095 183.902 111.563V118.121H182.31ZM193.409 118.337C192.41 118.337 191.549 118.117 190.825 117.676C190.105 117.23 189.55 116.61 189.158 115.814C188.771 115.013 188.578 114.082 188.578 113.02C188.578 111.959 188.771 111.023 189.158 110.213C189.55 109.399 190.094 108.765 190.791 108.311C191.493 107.852 192.311 107.623 193.247 107.623C193.787 107.623 194.32 107.712 194.846 107.892C195.372 108.072 195.851 108.365 196.283 108.77C196.715 109.17 197.059 109.701 197.316 110.362C197.572 111.023 197.7 111.837 197.7 112.804V113.479H189.712V112.103H196.081C196.081 111.518 195.964 110.996 195.73 110.537C195.501 110.078 195.172 109.716 194.745 109.451C194.322 109.186 193.823 109.053 193.247 109.053C192.613 109.053 192.064 109.21 191.601 109.525C191.142 109.836 190.789 110.24 190.541 110.74C190.294 111.239 190.17 111.774 190.17 112.346V113.263C190.17 114.046 190.305 114.709 190.575 115.254C190.85 115.793 191.23 116.205 191.715 116.488C192.201 116.767 192.766 116.907 193.409 116.907C193.827 116.907 194.205 116.848 194.543 116.731C194.884 116.61 195.179 116.43 195.426 116.191C195.674 115.949 195.865 115.647 196 115.287L197.538 115.719C197.376 116.241 197.104 116.7 196.722 117.096C196.34 117.487 195.867 117.793 195.305 118.013C194.743 118.229 194.111 118.337 193.409 118.337ZM203.172 118.364C202.515 118.364 201.919 118.24 201.384 117.993C200.849 117.741 200.424 117.379 200.109 116.907C199.794 116.43 199.637 115.854 199.637 115.179C199.637 114.586 199.754 114.104 199.987 113.735C200.221 113.362 200.534 113.07 200.925 112.858C201.317 112.647 201.748 112.489 202.221 112.386C202.698 112.278 203.177 112.193 203.658 112.13C204.288 112.049 204.798 111.988 205.19 111.947C205.585 111.902 205.873 111.828 206.053 111.725C206.238 111.621 206.33 111.441 206.33 111.185V111.131C206.33 110.465 206.148 109.948 205.783 109.579C205.423 109.21 204.877 109.026 204.144 109.026C203.384 109.026 202.788 109.192 202.356 109.525C201.924 109.858 201.62 110.213 201.445 110.591L199.934 110.051C200.203 109.422 200.563 108.931 201.013 108.581C201.467 108.225 201.962 107.978 202.497 107.838C203.037 107.694 203.568 107.623 204.09 107.623C204.423 107.623 204.805 107.663 205.237 107.744C205.673 107.82 206.094 107.98 206.498 108.223C206.908 108.466 207.247 108.833 207.517 109.323C207.787 109.813 207.922 110.47 207.922 111.293V118.121H206.33V116.718H206.249C206.141 116.943 205.961 117.183 205.709 117.44C205.457 117.696 205.122 117.914 204.704 118.094C204.285 118.274 203.775 118.364 203.172 118.364ZM203.415 116.934C204.045 116.934 204.576 116.81 205.007 116.562C205.444 116.315 205.772 115.996 205.992 115.604C206.217 115.213 206.33 114.801 206.33 114.37V112.912C206.262 112.993 206.114 113.067 205.884 113.135C205.66 113.198 205.399 113.254 205.102 113.304C204.809 113.349 204.524 113.389 204.245 113.425C203.971 113.457 203.748 113.484 203.577 113.506C203.163 113.56 202.776 113.648 202.416 113.769C202.061 113.886 201.773 114.064 201.553 114.302C201.337 114.536 201.229 114.855 201.229 115.26C201.229 115.814 201.434 116.232 201.843 116.515C202.257 116.794 202.781 116.934 203.415 116.934ZM210.828 118.121V107.757H212.367V109.377H212.502C212.718 108.824 213.066 108.394 213.548 108.088C214.029 107.778 214.607 107.623 215.282 107.623C215.965 107.623 216.534 107.778 216.989 108.088C217.447 108.394 217.805 108.824 218.061 109.377H218.169C218.435 108.842 218.833 108.416 219.364 108.102C219.894 107.782 220.531 107.623 221.273 107.623C222.2 107.623 222.958 107.913 223.547 108.493C224.136 109.069 224.431 109.966 224.431 111.185V118.121H222.838V111.185C222.838 110.42 222.629 109.874 222.211 109.545C221.793 109.217 221.3 109.053 220.733 109.053C220.005 109.053 219.44 109.273 219.04 109.714C218.639 110.15 218.439 110.704 218.439 111.374V118.121H216.82V111.023C216.82 110.434 216.629 109.959 216.246 109.599C215.864 109.235 215.372 109.053 214.769 109.053C214.355 109.053 213.968 109.163 213.608 109.384C213.253 109.604 212.965 109.91 212.745 110.301C212.529 110.688 212.421 111.136 212.421 111.644V118.121H210.828ZM231.687 118.337C230.689 118.337 229.827 118.117 229.103 117.676C228.383 117.23 227.828 116.61 227.437 115.814C227.05 115.013 226.856 114.082 226.856 113.02C226.856 111.959 227.05 111.023 227.437 110.213C227.828 109.399 228.372 108.765 229.069 108.311C229.771 107.852 230.59 107.623 231.525 107.623C232.065 107.623 232.598 107.712 233.124 107.892C233.651 108.072 234.13 108.365 234.562 108.77C234.993 109.17 235.338 109.701 235.594 110.362C235.85 111.023 235.979 111.837 235.979 112.804V113.479H227.99V112.103H234.359C234.359 111.518 234.242 110.996 234.008 110.537C233.779 110.078 233.451 109.716 233.023 109.451C232.6 109.186 232.101 109.053 231.525 109.053C230.891 109.053 230.342 109.21 229.879 109.525C229.42 109.836 229.067 110.24 228.82 110.74C228.572 111.239 228.449 111.774 228.449 112.346V113.263C228.449 114.046 228.584 114.709 228.854 115.254C229.128 115.793 229.508 116.205 229.994 116.488C230.48 116.767 231.044 116.907 231.687 116.907C232.106 116.907 232.483 116.848 232.821 116.731C233.163 116.61 233.457 116.43 233.705 116.191C233.952 115.949 234.143 115.647 234.278 115.287L235.817 115.719C235.655 116.241 235.383 116.7 235 117.096C234.618 117.487 234.146 117.793 233.583 118.013C233.021 118.229 232.389 118.337 231.687 118.337ZM242.314 118.337C241.45 118.337 240.688 118.119 240.027 117.683C239.366 117.242 238.848 116.621 238.475 115.82C238.102 115.015 237.915 114.064 237.915 112.966C237.915 111.878 238.102 110.933 238.475 110.132C238.848 109.332 239.368 108.713 240.034 108.277C240.699 107.841 241.468 107.623 242.341 107.623C243.016 107.623 243.549 107.735 243.94 107.96C244.336 108.18 244.637 108.432 244.844 108.716C245.056 108.994 245.22 109.224 245.337 109.404H245.472V104.303H247.064V118.121H245.526V116.529H245.337C245.22 116.718 245.053 116.956 244.838 117.244C244.622 117.527 244.314 117.781 243.913 118.006C243.513 118.227 242.98 118.337 242.314 118.337ZM242.53 116.907C243.169 116.907 243.709 116.74 244.149 116.407C244.59 116.07 244.925 115.604 245.155 115.011C245.384 114.412 245.499 113.722 245.499 112.939C245.499 112.166 245.386 111.489 245.161 110.908C244.936 110.324 244.604 109.869 244.163 109.545C243.722 109.217 243.178 109.053 242.53 109.053C241.855 109.053 241.293 109.226 240.843 109.572C240.398 109.914 240.063 110.38 239.838 110.969C239.617 111.554 239.507 112.211 239.507 112.939C239.507 113.677 239.62 114.347 239.845 114.95C240.074 115.548 240.411 116.025 240.857 116.38C241.307 116.731 241.864 116.907 242.53 116.907ZM260.052 107.757V109.107H254.682V107.757H260.052ZM256.247 105.275H257.839V115.152C257.839 115.602 257.905 115.94 258.035 116.164C258.17 116.385 258.341 116.533 258.548 116.61C258.759 116.682 258.982 116.718 259.216 116.718C259.391 116.718 259.535 116.709 259.648 116.691C259.76 116.668 259.85 116.65 259.917 116.637L260.241 118.067C260.133 118.108 259.983 118.148 259.789 118.189C259.596 118.234 259.351 118.256 259.054 118.256C258.604 118.256 258.163 118.159 257.731 117.966C257.304 117.772 256.949 117.478 256.665 117.082C256.386 116.686 256.247 116.187 256.247 115.584V105.275ZM266.547 118.337C265.611 118.337 264.79 118.114 264.084 117.669C263.382 117.224 262.833 116.601 262.438 115.8C262.046 114.999 261.85 114.064 261.85 112.993C261.85 111.914 262.046 110.971 262.438 110.166C262.833 109.361 263.382 108.736 264.084 108.29C264.79 107.845 265.611 107.623 266.547 107.623C267.482 107.623 268.301 107.845 269.002 108.29C269.709 108.736 270.257 109.361 270.649 110.166C271.045 110.971 271.243 111.914 271.243 112.993C271.243 114.064 271.045 114.999 270.649 115.8C270.257 116.601 269.709 117.224 269.002 117.669C268.301 118.114 267.482 118.337 266.547 118.337ZM266.547 116.907C267.257 116.907 267.842 116.724 268.301 116.36C268.76 115.996 269.099 115.517 269.32 114.923C269.54 114.329 269.65 113.686 269.65 112.993C269.65 112.301 269.54 111.655 269.32 111.057C269.099 110.459 268.76 109.975 268.301 109.606C267.842 109.237 267.257 109.053 266.547 109.053C265.836 109.053 265.251 109.237 264.792 109.606C264.333 109.975 263.994 110.459 263.773 111.057C263.553 111.655 263.443 112.301 263.443 112.993C263.443 113.686 263.553 114.329 263.773 114.923C263.994 115.517 264.333 115.996 264.792 116.36C265.251 116.724 265.836 116.907 266.547 116.907ZM283.362 118.337C282.364 118.337 281.502 118.117 280.778 117.676C280.058 117.23 279.503 116.61 279.111 115.814C278.725 115.013 278.531 114.082 278.531 113.02C278.531 111.959 278.725 111.023 279.111 110.213C279.503 109.399 280.047 108.765 280.744 108.311C281.446 107.852 282.265 107.623 283.2 107.623C283.74 107.623 284.273 107.712 284.799 107.892C285.326 108.072 285.805 108.365 286.236 108.77C286.668 109.17 287.012 109.701 287.269 110.362C287.525 111.023 287.653 111.837 287.653 112.804V113.479H279.665V112.103H286.034C286.034 111.518 285.917 110.996 285.683 110.537C285.454 110.078 285.125 109.716 284.698 109.451C284.275 109.186 283.776 109.053 283.2 109.053C282.566 109.053 282.017 109.21 281.554 109.525C281.095 109.836 280.742 110.24 280.495 110.74C280.247 111.239 280.123 111.774 280.123 112.346V113.263C280.123 114.046 280.258 114.709 280.528 115.254C280.803 115.793 281.183 116.205 281.669 116.488C282.154 116.767 282.719 116.907 283.362 116.907C283.78 116.907 284.158 116.848 284.496 116.731C284.838 116.61 285.132 116.43 285.38 116.191C285.627 115.949 285.818 115.647 285.953 115.287L287.491 115.719C287.329 116.241 287.057 116.7 286.675 117.096C286.293 117.487 285.82 117.793 285.258 118.013C284.696 118.229 284.064 118.337 283.362 118.337ZM298.235 107.757L294.402 118.121H292.783L288.95 107.757H290.678L293.539 116.016H293.646L296.507 107.757H298.235ZM304.31 118.337C303.312 118.337 302.45 118.117 301.726 117.676C301.007 117.23 300.451 116.61 300.06 115.814C299.673 115.013 299.479 114.082 299.479 113.02C299.479 111.959 299.673 111.023 300.06 110.213C300.451 109.399 300.995 108.765 301.692 108.311C302.394 107.852 303.213 107.623 304.148 107.623C304.688 107.623 305.221 107.712 305.748 107.892C306.274 108.072 306.753 108.365 307.185 108.77C307.616 109.17 307.961 109.701 308.217 110.362C308.473 111.023 308.602 111.837 308.602 112.804V113.479H300.613V112.103H306.982C306.982 111.518 306.865 110.996 306.631 110.537C306.402 110.078 306.074 109.716 305.646 109.451C305.223 109.186 304.724 109.053 304.148 109.053C303.514 109.053 302.965 109.21 302.502 109.525C302.043 109.836 301.69 110.24 301.443 110.74C301.195 111.239 301.072 111.774 301.072 112.346V113.263C301.072 114.046 301.207 114.709 301.477 115.254C301.751 115.793 302.131 116.205 302.617 116.488C303.103 116.767 303.667 116.907 304.31 116.907C304.729 116.907 305.107 116.848 305.444 116.731C305.786 116.61 306.08 116.43 306.328 116.191C306.575 115.949 306.766 115.647 306.901 115.287L308.44 115.719C308.278 116.241 308.006 116.7 307.623 117.096C307.241 117.487 306.769 117.793 306.206 118.013C305.644 118.229 305.012 118.337 304.31 118.337ZM311.024 118.121V107.757H312.562V109.323H312.67C312.859 108.81 313.201 108.394 313.696 108.075C314.19 107.755 314.748 107.596 315.369 107.596C315.486 107.596 315.632 107.598 315.808 107.602C315.983 107.607 316.116 107.614 316.206 107.623V109.242C316.152 109.228 316.028 109.208 315.835 109.181C315.646 109.15 315.445 109.134 315.234 109.134C314.73 109.134 314.28 109.24 313.885 109.451C313.493 109.658 313.183 109.946 312.953 110.315C312.729 110.679 312.616 111.095 312.616 111.563V118.121H311.024ZM319.434 122.007C319.164 122.007 318.924 121.985 318.712 121.94C318.501 121.9 318.355 121.859 318.274 121.819L318.678 120.415C319.065 120.514 319.407 120.55 319.704 120.523C320.001 120.496 320.264 120.363 320.493 120.125C320.727 119.891 320.941 119.511 321.134 118.985L321.431 118.175L317.599 107.757H319.326L322.187 116.016H322.295L325.156 107.757H326.883L322.484 119.632C322.286 120.168 322.041 120.611 321.748 120.962C321.456 121.317 321.116 121.58 320.73 121.751C320.347 121.922 319.915 122.007 319.434 122.007ZM1.45739 151.007V136.757H2.99574V138.404H3.18466C3.30161 138.224 3.46354 137.994 3.67045 137.716C3.88187 137.432 4.18324 137.18 4.57457 136.96C4.97041 136.735 5.50568 136.623 6.1804 136.623C7.05303 136.623 7.82221 136.841 8.48793 137.277C9.15365 137.713 9.67318 138.332 10.0465 139.132C10.4199 139.933 10.6065 140.878 10.6065 141.966C10.6065 143.064 10.4199 144.015 10.0465 144.82C9.67318 145.621 9.1559 146.242 8.49467 146.683C7.83345 147.119 7.07102 147.337 6.20739 147.337C5.54167 147.337 5.00864 147.227 4.60831 147.006C4.20798 146.781 3.89986 146.527 3.68395 146.244C3.46804 145.956 3.30161 145.718 3.18466 145.529H3.04972V151.007H1.45739ZM3.02273 141.939C3.02273 142.722 3.13743 143.412 3.36683 144.011C3.59624 144.604 3.93134 145.07 4.37216 145.407C4.81297 145.74 5.35275 145.907 5.99148 145.907C6.6572 145.907 7.21271 145.731 7.65803 145.38C8.10784 145.025 8.44519 144.548 8.6701 143.95C8.8995 143.347 9.01421 142.677 9.01421 141.939C9.01421 141.211 8.90175 140.554 8.67685 139.969C8.45644 139.38 8.12133 138.914 7.67152 138.572C7.22621 138.226 6.66619 138.053 5.99148 138.053C5.34375 138.053 4.79948 138.217 4.35867 138.545C3.91785 138.869 3.58499 139.324 3.36009 139.908C3.13518 140.489 3.02273 141.166 3.02273 141.939ZM14.6278 133.303V147.121H13.0355V133.303H14.6278ZM20.594 147.364C19.9373 147.364 19.3413 147.24 18.806 146.993C18.2707 146.741 17.8457 146.379 17.5308 145.907C17.2159 145.43 17.0585 144.854 17.0585 144.179C17.0585 143.586 17.1755 143.104 17.4094 142.735C17.6433 142.362 17.9559 142.07 18.3472 141.858C18.7385 141.647 19.1704 141.489 19.6427 141.386C20.1195 141.278 20.5985 141.193 21.0798 141.13C21.7095 141.049 22.2201 140.988 22.6114 140.947C23.0073 140.902 23.2951 140.828 23.4751 140.725C23.6595 140.621 23.7517 140.441 23.7517 140.185V140.131C23.7517 139.465 23.5695 138.948 23.2052 138.579C22.8453 138.21 22.2988 138.026 21.5656 138.026C20.8054 138.026 20.2094 138.192 19.7776 138.525C19.3458 138.858 19.0422 139.213 18.8667 139.591L17.3554 139.051C17.6253 138.422 17.9851 137.931 18.4349 137.581C18.8892 137.225 19.384 136.978 19.9193 136.838C20.4591 136.694 20.9898 136.623 21.5116 136.623C21.8445 136.623 22.2268 136.663 22.6586 136.744C23.095 136.82 23.5155 136.98 23.9204 137.223C24.3297 137.466 24.6693 137.833 24.9392 138.323C25.2091 138.813 25.344 139.47 25.344 140.293V147.121H23.7517V145.718H23.6707C23.5628 145.943 23.3828 146.183 23.1309 146.44C22.8791 146.696 22.5439 146.914 22.1256 147.094C21.7073 147.274 21.1968 147.364 20.594 147.364ZM20.8369 145.934C21.4666 145.934 21.9974 145.81 22.4292 145.562C22.8656 145.315 23.1939 144.996 23.4143 144.604C23.6392 144.213 23.7517 143.801 23.7517 143.37V141.912C23.6842 141.993 23.5358 142.067 23.3064 142.135C23.0815 142.198 22.8206 142.254 22.5237 142.304C22.2313 142.349 21.9457 142.389 21.6668 142.425C21.3924 142.457 21.1698 142.484 20.9988 142.506C20.585 142.56 20.1982 142.648 19.8383 142.769C19.483 142.886 19.1951 143.064 18.9747 143.302C18.7588 143.536 18.6508 143.855 18.6508 144.26C18.6508 144.814 18.8555 145.232 19.2648 145.515C19.6787 145.794 20.2027 145.934 20.8369 145.934ZM32.7575 136.757V138.107H27.3867V136.757H32.7575ZM28.9521 134.275H30.5444V144.152C30.5444 144.602 30.6096 144.94 30.7401 145.164C30.875 145.385 31.0459 145.533 31.2528 145.61C31.4643 145.682 31.6869 145.718 31.9208 145.718C32.0962 145.718 32.2402 145.709 32.3526 145.691C32.4651 145.668 32.555 145.65 32.6225 145.637L32.9464 147.067C32.8384 147.108 32.6877 147.148 32.4943 147.189C32.3009 147.234 32.0558 147.256 31.7589 147.256C31.3091 147.256 30.8683 147.159 30.4364 146.966C30.0091 146.772 29.6538 146.478 29.3704 146.082C29.0915 145.686 28.9521 145.187 28.9521 144.584V134.275ZM39.7678 136.757V138.107H34.1811V136.757H39.7678ZM35.8544 147.121V135.327C35.8544 134.733 35.9938 134.239 36.2727 133.843C36.5516 133.447 36.9137 133.15 37.359 132.952C37.8043 132.754 38.2744 132.655 38.7692 132.655C39.1605 132.655 39.4799 132.687 39.7273 132.75C39.9747 132.813 40.1591 132.871 40.2805 132.925L39.8217 134.301C39.7408 134.275 39.6283 134.241 39.4844 134.2C39.3449 134.16 39.1605 134.14 38.9311 134.14C38.4048 134.14 38.0247 134.272 37.7908 134.538C37.5614 134.803 37.4467 135.192 37.4467 135.705V147.121H35.8544ZM45.7828 147.337C44.8472 147.337 44.0263 147.114 43.3201 146.669C42.6184 146.224 42.0697 145.601 41.6738 144.8C41.2825 143.999 41.0868 143.064 41.0868 141.993C41.0868 140.914 41.2825 139.971 41.6738 139.166C42.0697 138.361 42.6184 137.736 43.3201 137.29C44.0263 136.845 44.8472 136.623 45.7828 136.623C46.7185 136.623 47.5371 136.845 48.2388 137.29C48.945 137.736 49.4938 138.361 49.8851 139.166C50.281 139.971 50.4789 140.914 50.4789 141.993C50.4789 143.064 50.281 143.999 49.8851 144.8C49.4938 145.601 48.945 146.224 48.2388 146.669C47.5371 147.114 46.7185 147.337 45.7828 147.337ZM45.7828 145.907C46.4935 145.907 47.0783 145.724 47.5371 145.36C47.9959 144.996 48.3355 144.517 48.5559 143.923C48.7763 143.329 48.8865 142.686 48.8865 141.993C48.8865 141.301 48.7763 140.655 48.5559 140.057C48.3355 139.459 47.9959 138.975 47.5371 138.606C47.0783 138.237 46.4935 138.053 45.7828 138.053C45.0721 138.053 44.4874 138.237 44.0286 138.606C43.5698 138.975 43.2302 139.459 43.0098 140.057C42.7894 140.655 42.6792 141.301 42.6792 141.993C42.6792 142.686 42.7894 143.329 43.0098 143.923C43.2302 144.517 43.5698 144.996 44.0286 145.36C44.4874 145.724 45.0721 145.907 45.7828 145.907ZM52.9095 147.121V136.757H54.4479V138.323H54.5558C54.7448 137.81 55.0866 137.394 55.5814 137.075C56.0762 136.755 56.634 136.596 57.2547 136.596C57.3717 136.596 57.5178 136.598 57.6933 136.602C57.8687 136.607 58.0014 136.614 58.0914 136.623V138.242C58.0374 138.228 57.9137 138.208 57.7203 138.181C57.5313 138.15 57.3312 138.134 57.1198 138.134C56.616 138.134 56.1662 138.24 55.7703 138.451C55.379 138.658 55.0686 138.946 54.8392 139.315C54.6143 139.679 54.5019 140.095 54.5019 140.563V147.121H52.9095ZM59.9789 147.121V136.757H61.5172V138.377H61.6522C61.8681 137.824 62.2167 137.394 62.698 137.088C63.1793 136.778 63.7573 136.623 64.432 136.623C65.1157 136.623 65.6847 136.778 66.139 137.088C66.5978 137.394 66.9554 137.824 67.2118 138.377H67.3198C67.5852 137.842 67.9833 137.416 68.514 137.102C69.0448 136.782 69.6813 136.623 70.4235 136.623C71.3501 136.623 72.108 136.913 72.6973 137.493C73.2865 138.069 73.5811 138.966 73.5811 140.185V147.121H71.9888V140.185C71.9888 139.42 71.7797 138.874 71.3613 138.545C70.943 138.217 70.4505 138.053 69.8837 138.053C69.155 138.053 68.5905 138.273 68.1902 138.714C67.7898 139.15 67.5897 139.704 67.5897 140.374V147.121H65.9703V140.023C65.9703 139.434 65.7792 138.959 65.3968 138.599C65.0145 138.235 64.522 138.053 63.9192 138.053C63.5054 138.053 63.1185 138.163 62.7587 138.384C62.4034 138.604 62.1155 138.91 61.8951 139.301C61.6792 139.688 61.5712 140.136 61.5712 140.644V147.121H59.9789ZM77.6531 147.229C77.3202 147.229 77.0346 147.11 76.7962 146.871C76.5578 146.633 76.4386 146.347 76.4386 146.015C76.4386 145.682 76.5578 145.396 76.7962 145.158C77.0346 144.919 77.3202 144.8 77.6531 144.8C77.9859 144.8 78.2715 144.919 78.5099 145.158C78.7483 145.396 78.8675 145.682 78.8675 146.015C78.8675 146.235 78.8113 146.437 78.6989 146.622C78.5909 146.806 78.4447 146.955 78.2603 147.067C78.0804 147.175 77.878 147.229 77.6531 147.229Z" fill="white"/>
<path fill-rule="evenodd" clip-rule="evenodd" d="M9.56726 7.86898C9.81282 8.12117 9.95056 8.46284 9.95023 8.81893C9.9499 9.17503 9.81153 9.51643 9.56551 9.76815C8.05631 11.3058 6.85933 13.1341 6.04357 15.1476C5.22781 17.1612 4.80942 19.3201 4.81251 21.5C4.80953 23.7048 5.23767 25.8879 6.0717 27.9206C6.90574 29.9533 8.12879 31.7945 9.66876 33.3357C9.79469 33.4586 9.89552 33.6058 9.96538 33.7689C10.0352 33.932 10.0727 34.1077 10.0757 34.2857C10.0787 34.4638 10.047 34.6406 9.98265 34.8061C9.91825 34.9715 9.82239 35.1222 9.70062 35.2493C9.57885 35.3765 9.43361 35.4776 9.27334 35.5468C9.11306 35.616 8.94096 35.6519 8.76702 35.6523C8.59308 35.6528 8.42079 35.6179 8.26014 35.5496C8.0995 35.4814 7.95371 35.3811 7.83126 35.2546C6.042 33.4632 4.6209 31.3234 3.65165 28.9612C2.68239 26.599 2.18458 24.0622 2.18751 21.5C2.18751 16.1751 4.29976 11.352 7.71051 7.86719C7.95684 7.61578 8.29056 7.47476 8.63837 7.4751C8.98619 7.47543 9.3214 7.6171 9.56726 7.86898ZM32.578 7.99798C32.8266 7.74894 33.1617 7.61112 33.5095 7.61482C33.8573 7.61851 34.1895 7.76341 34.433 8.01769C37.8857 11.6143 39.818 16.457 39.8125 21.5C39.8125 26.8105 37.7125 31.6229 34.3158 35.1059C34.0698 35.3582 33.736 35.5002 33.3878 35.5005C33.0395 35.5008 32.7055 35.3595 32.459 35.1077C32.2126 34.8558 32.0739 34.5141 32.0736 34.1576C32.0733 33.8011 32.2113 33.459 32.4573 33.2067C33.9594 31.6701 35.1505 29.845 35.9623 27.8361C36.774 25.8272 37.1904 23.674 37.1875 21.5C37.1936 17.1608 35.5315 12.9935 32.5605 9.89894C32.317 9.64462 32.1821 9.30175 32.1854 8.94565C32.1887 8.58955 32.3299 8.24755 32.578 7.99798ZM14.539 13.416C14.7769 13.6762 14.904 14.0224 14.8925 14.3785C14.881 14.7347 14.7318 15.0716 14.4778 15.3151C12.817 16.9061 11.8108 19.0812 11.8108 21.4677C11.8108 23.8829 12.8415 26.0813 14.5373 27.6776C14.7935 27.919 14.9455 28.2547 14.9599 28.6109C14.9744 28.9671 14.85 29.3145 14.6143 29.5768C14.3785 29.8391 14.0506 29.9948 13.7027 30.0096C13.3548 30.0243 13.0155 29.897 12.7593 29.6556C10.5683 27.5934 9.18576 24.6927 9.18576 21.4677C9.18576 18.2804 10.535 15.4119 12.6858 13.3515C12.9401 13.1082 13.2784 12.9783 13.6263 12.9904C13.9742 13.0025 14.3031 13.1556 14.5408 13.416M27.5503 13.4841C27.7907 13.2266 28.1212 13.0775 28.4691 13.0694C28.8169 13.0614 29.1536 13.195 29.4053 13.4411C31.5 15.4925 32.8125 18.3269 32.8125 21.4677C32.8125 24.6479 31.4703 27.511 29.33 29.5679C29.2051 29.6921 29.0572 29.7897 28.8951 29.8548C28.7329 29.92 28.5597 29.9515 28.3856 29.9474C28.2114 29.9433 28.0398 29.9038 27.8807 29.8312C27.7216 29.7585 27.5783 29.6541 27.459 29.5242C27.3397 29.3942 27.2469 29.2412 27.1859 29.0741C27.125 28.9071 27.0971 28.7292 27.104 28.551C27.1109 28.3728 27.1523 28.1978 27.2259 28.0362C27.2995 27.8745 27.4038 27.7295 27.5328 27.6096C29.1865 26.0204 30.1875 23.8471 30.1875 21.4677C30.1875 19.1153 29.2093 16.9671 27.5905 15.3832C27.3393 15.1368 27.194 14.7983 27.1864 14.4422C27.1789 14.0861 27.3097 13.7414 27.5503 13.4841Z" fill="white"/>
<path d="M23.898 18.7247C25.466 19.9036 26.25 20.4931 26.25 21.5018C26.25 22.5087 25.466 23.0964 23.898 24.2753C23.4891 24.5854 23.07 24.8812 22.6415 25.1622C22.2967 25.3861 21.9047 25.6173 21.4987 25.8448C19.9342 26.7227 19.1537 27.1599 18.452 26.6743C17.7502 26.1906 17.6873 25.1729 17.5595 23.143C17.5245 22.5696 17.5 22.0053 17.5 21.5C17.5 20.9948 17.5228 20.4322 17.5595 19.8571C17.6855 17.8271 17.7502 16.8112 18.452 16.3275C19.152 15.8419 19.9343 16.2791 21.497 17.1552C21.9048 17.3828 22.2967 17.6139 22.6415 17.8378C23.037 18.0941 23.4658 18.4004 23.898 18.7247Z" fill="white"/>
</svg>
