<svg width="70" height="70" viewBox="0 0 70 70" fill="none" xmlns="http://www.w3.org/2000/svg">
<path d="M62.2221 56.3889H7.7777C7.262 56.3889 6.76742 56.184 6.40277 55.8194C6.03811 55.4547 5.83325 54.9601 5.83325 54.4444C5.83325 53.9287 6.03811 53.4342 6.40277 53.0695C6.76742 52.7049 7.262 52.5 7.7777 52.5H62.2221C62.7378 52.5 63.2324 52.7049 63.5971 53.0695C63.9617 53.4342 64.1666 53.9287 64.1666 54.4444C64.1666 54.9601 63.9617 55.4547 63.5971 55.8194C63.2324 56.184 62.7378 56.3889 62.2221 56.3889Z" fill="white"/>
<path d="M62.2221 36.9444H7.7777C7.262 36.9444 6.76742 36.7396 6.40277 36.3749C6.03811 36.0103 5.83325 35.5157 5.83325 35C5.83325 34.4843 6.03811 33.9897 6.40277 33.6251C6.76742 33.2604 7.262 33.0555 7.7777 33.0555H62.2221C62.7378 33.0555 63.2324 33.2604 63.5971 33.6251C63.9617 33.9897 64.1666 34.4843 64.1666 35C64.1666 35.5157 63.9617 36.0103 63.5971 36.3749C63.2324 36.7396 62.7378 36.9444 62.2221 36.9444Z" fill="white"/>
<path d="M62.2221 17.5H7.7777C7.262 17.5 6.76742 17.2951 6.40277 16.9305C6.03811 16.5658 5.83325 16.0712 5.83325 15.5555C5.83325 15.0398 6.03811 14.5453 6.40277 14.1806C6.76742 13.8159 7.262 13.6111 7.7777 13.6111H62.2221C62.7378 13.6111 63.2324 13.8159 63.5971 14.1806C63.9617 14.5453 64.1666 15.0398 64.1666 15.5555C64.1666 16.0712 63.9617 16.5658 63.5971 16.9305C63.2324 17.2951 62.7378 17.5 62.2221 17.5Z" fill="white"/>
</svg>
